M48
INCH,LZ
;FILE_FORMAT=2:4
;TYPE=PLATED
;Layer: PTH_Through_Via
;EasyEDA v6.5.39, 2023-12-30 12:54:19
;fb32ffe7bce1468d89b920df2382912b,ced954a3207a4d028f07e6fa70cdf7d5,10
;Gerber Generator version 0.2
;Holesize 1 = 0.0120 inch
T01C0.0120
%
G05
G90
T01
X040373Y-016068
X020735Y-007765
X036387Y-021329
X036311Y-011359
X019849Y-006243
X029965Y-011782
X033212Y-015946
X019873Y-021105
X014570Y-019147
X026776Y-012539
X029423Y-009203
X030627Y-003289
X029645Y-011117
X035729Y-017684
X034496Y-028353
X027415Y-012929
X035190Y-018812
X039990Y-021224
X030977Y-022573
X041920Y-011110
X026565Y-006032
X020958Y-006005
X048388Y-020100
X043542Y-024866
X030065Y-014053
X039420Y-014625
X017388Y-025090
X017367Y-024767
X038841Y-021348
M30
