M48
INCH,LZ
;FILE_FORMAT=2:4
;TYPE=PLATED
;Layer: PTH_Through
;EasyEDA v6.5.39, 2023-12-30 12:54:19
;fb32ffe7bce1468d89b920df2382912b,ced954a3207a4d028f07e6fa70cdf7d5,10
;Gerber Generator version 0.2
;Holesize 1 = 0.0120 inch
T01C0.0120
;Holesize 2 = 0.0240 inch
T02C0.0240
;Holesize 3 = 0.0280 inch
T03C0.0280
;Holesize 4 = 0.0280 inch
T04C0.0280
;Holesize 5 = 0.0350 inch
T05C0.0350
;Holesize 6 = 0.0350 inch
T06C0.0350
;Holesize 7 = 0.0350 inch
T07C0.0350
;Holesize 8 = 0.0400 inch
T08C0.0400
;Holesize 9 = 0.0430 inch
T09C0.0430
;Holesize 10 = 0.0510 inch
T10C0.0510
%
G05
G90
T01
X040373Y-016068
X020735Y-007765
X036387Y-021329
X036311Y-011359
X019849Y-006243
X029965Y-011782
X033212Y-015946
X019873Y-021105
X014570Y-019147
X026776Y-012539
X029423Y-009203
X030627Y-003289
X029645Y-011117
X035729Y-017684
X034496Y-028353
X027415Y-012929
X035190Y-018812
X039990Y-021224
X030977Y-022573
X041920Y-011110
X026565Y-006032
X020958Y-006005
X048388Y-020100
X043542Y-024866
X030065Y-014053
X039420Y-014625
X017388Y-025090
X017367Y-024767
X038841Y-021348
T02
X031699Y-024399
X032700Y-024400
X033700Y-024400
X034700Y-024400
X035700Y-024400
X036700Y-024400
X037700Y-024400
X038700Y-024400
X039700Y-024400
T03
X014700Y-018000
X014700Y-016071
X011000Y-021700
X010409Y-021700
T04
X019600Y-020000
X020600Y-020000
X021600Y-020000
X022600Y-020000
X023600Y-020000
X024600Y-020000
X025600Y-020000
X026600Y-020000
X027600Y-020000
X028600Y-020000
X029600Y-020000
X030600Y-020000
X031600Y-020000
X032600Y-020000
X033600Y-020000
X034600Y-020000
X035600Y-020000
X036600Y-020000
X037600Y-020000
X038600Y-020000
X038600Y-014000
X037600Y-014000
X036600Y-014000
X035600Y-014000
X034600Y-014000
X033600Y-014000
X032600Y-014000
X031600Y-014000
X030600Y-014000
X029600Y-014000
X028600Y-014000
X027600Y-014000
X026600Y-014000
X025600Y-014000
X024600Y-014000
X023600Y-014000
X022600Y-014000
X021600Y-014000
X020600Y-014000
X019600Y-014000
X016700Y-029100
X017700Y-029100
X018700Y-029100
X019700Y-029100
X020700Y-029100
X021700Y-029100
X022700Y-029100
X023700Y-029100
X024700Y-029100
X025700Y-029100
X026700Y-029100
X027700Y-029100
X027700Y-023100
X026700Y-023100
X025700Y-023100
X024700Y-023100
X023700Y-023100
X022700Y-023100
X021700Y-023100
X020700Y-023100
X019700Y-023100
X018700Y-023100
X017700Y-023100
X016700Y-023100
X029000Y-010600
X030000Y-010600
X031000Y-010600
X032000Y-010600
X033000Y-010600
X034000Y-010600
X035000Y-010600
X036000Y-010600
X037000Y-010600
X038000Y-010600
X039000Y-010600
X040000Y-010600
X041000Y-010600
X042000Y-010600
X042000Y-004600
X041000Y-004600
X040000Y-004600
X039000Y-004600
X038000Y-004600
X037000Y-004600
X036000Y-004600
X035000Y-004600
X034000Y-004600
X033000Y-004600
X032000Y-004600
X031000Y-004600
X030000Y-004600
X029000Y-004600
X011000Y-010500
X012000Y-010500
X013000Y-010500
X014000Y-010500
X015000Y-010500
X016000Y-010500
X017000Y-010500
X018000Y-010500
X019000Y-010500
X020000Y-010500
X021000Y-010500
X022000Y-010500
X023000Y-010500
X024000Y-010500
X024000Y-004500
X023000Y-004500
X022000Y-004500
X021000Y-004500
X020000Y-004500
X019000Y-004500
X018000Y-004500
X017000Y-004500
X016000Y-004500
X015000Y-004500
X014000Y-004500
X013000Y-004500
X012000Y-004500
X011000Y-004500
X011510Y-017970
X010510Y-017970
X011610Y-016070
X010610Y-016070
X026970Y-007090
X026970Y-008090
X008970Y-006990
X008970Y-007990
X017470Y-016490
X017470Y-017490
X030670Y-026990
X030670Y-027990
X014570Y-025590
X014570Y-026590
X032700Y-028900
X033700Y-028900
X034700Y-028900
X035700Y-028900
X036700Y-028900
X037700Y-028900
X038700Y-028900
X038700Y-025900
X037700Y-025900
X036700Y-025900
X035700Y-025900
X034700Y-025900
X033700Y-025900
X032700Y-025900
T05
X007000Y-020000
X007000Y-021000
X007000Y-022000
X007000Y-023000
X007000Y-024000
X007000Y-025000
X047400Y-024100
X046400Y-024100
X047400Y-023100
X046400Y-023100
X047400Y-022100
X046400Y-022100
X047400Y-021100
X046400Y-021100
X047400Y-020100
X046400Y-020100
X047400Y-019100
X046400Y-019100
X047400Y-018100
X046400Y-018100
X047400Y-017100
X046400Y-017100
X047400Y-016100
X046400Y-016100
X047400Y-015100
X046400Y-015100
X047400Y-014100
X046400Y-014100
X047400Y-013100
X046400Y-013100
X047400Y-012100
X046400Y-012100
X047400Y-011100
X046400Y-011100
X047400Y-010100
X046400Y-010100
X047400Y-009100
X046400Y-009100
T06
X009100Y-026800
X012100Y-026800
T07
X007000Y-012038
X007000Y-013038
T08
X044890Y-026420
X044890Y-028980
X043110Y-026420
X043110Y-028980
T09
X009200Y-024200
X012200Y-024200
T10
X007000Y-017000
X007000Y-016000
M30
