G04 Layer: BottomLayer*
G04 EasyEDA v6.5.39, 2024-01-03 14:12:35*
G04 d929642428bd4096b0ac961750852c7a,ced954a3207a4d028f07e6fa70cdf7d5,10*
G04 Gerber Generator version 0.2*
G04 Scale: 100 percent, Rotated: No, Reflected: No *
G04 Dimensions in inches *
G04 leading zeros omitted , absolute positions ,3 integer and 6 decimal *
%FSLAX36Y36*%
%MOIN*%

%ADD10C,0.0060*%
%ADD11C,0.0180*%
%ADD12R,0.0550X0.0550*%
%ADD13C,0.0550*%
%ADD14C,0.0630*%
%ADD15C,0.0470*%
%ADD16C,0.0740*%
%ADD17C,0.0620*%
%ADD18R,0.0620X0.0620*%
%ADD19C,0.0650*%
%ADD20C,0.0750*%
%ADD21C,0.0394*%
%ADD22R,0.0748X0.0748*%
%ADD23C,0.0748*%
%ADD24R,0.0397X0.0397*%
%ADD25C,0.0397*%
%ADD26C,0.0240*%
%ADD27C,0.0101*%

%LPD*%
D10*
X4192100Y-1452100D02*
G01*
X4508500Y-1768499D01*
X4761800Y-1768499D01*
X4793599Y-1800399D01*
X4793599Y-2221599D01*
X4755299Y-2260000D01*
X4730400Y-2260000D01*
X4699899Y-2290500D01*
X4699899Y-2350100D01*
X4640000Y-2410000D01*
X3800000Y-1060000D02*
G01*
X4192100Y-1452100D01*
X4192100Y-1452100D02*
G01*
X4037299Y-1606799D01*
X2670000Y-2910000D02*
G01*
X2707500Y-2872500D01*
X2707500Y-2047500D01*
X2660000Y-2000000D01*
X2073500Y-776500D02*
G01*
X1800000Y-1050000D01*
X3600000Y-1060000D02*
G01*
X3610000Y-1070000D01*
X3610000Y-1352199D01*
X3622100Y-1364299D01*
X3622100Y-2116399D01*
X3638699Y-2132899D01*
X3860000Y-2000000D02*
G01*
X3810000Y-1950000D01*
X3810000Y-1376599D01*
X3631099Y-1197699D01*
X3631099Y-1135900D01*
X3370000Y-2890000D02*
G01*
X3333400Y-2926599D01*
X3234099Y-2926599D01*
X3225299Y-2917800D01*
X3225299Y-2839800D01*
X3420000Y-2645100D01*
X3420000Y-2467899D01*
X3432100Y-2455700D01*
X3432100Y-2429400D01*
X3697600Y-2163899D01*
X3697600Y-1437600D01*
X3660000Y-1400000D01*
X1900000Y-450000D02*
G01*
X1900000Y-539400D01*
X1984899Y-624299D01*
X2860000Y-1400000D02*
G01*
X2860000Y-1314800D01*
X2996499Y-1178200D01*
X2100000Y-1050000D02*
G01*
X2096800Y-1053200D01*
X2096800Y-1477199D01*
X2008699Y-1565300D01*
X2008699Y-2171300D01*
X1870000Y-2310000D01*
X4740000Y-1710000D02*
G01*
X4698500Y-1668499D01*
X4508500Y-1668499D01*
X3900000Y-1060000D01*
X3570000Y-2890000D02*
G01*
X3531000Y-2929000D01*
X3455200Y-2929000D01*
X3428500Y-2902300D01*
X3428500Y-2826500D01*
X3432500Y-2822600D01*
X3432500Y-2627500D01*
X3470000Y-2590000D01*
X2800000Y-2280000D02*
G01*
X2800000Y-1481300D01*
X2760000Y-1441300D01*
X2760000Y-1400000D01*
X4740000Y-1810000D02*
G01*
X4781499Y-1851500D01*
X4781499Y-2025199D01*
X4736899Y-2069899D01*
X4713400Y-2069899D01*
X4680100Y-2103200D01*
X4680100Y-2128200D01*
X4648400Y-2160000D01*
X4630500Y-2160000D01*
X3943299Y-2847199D01*
X3943299Y-2869499D01*
X3868199Y-2944699D01*
X3624700Y-2944699D01*
X3570000Y-2890000D01*
X2770000Y-2310000D02*
G01*
X2800000Y-2280000D01*
X2800000Y-2280000D02*
G01*
X3068999Y-2280000D01*
X3370000Y-2580999D01*
X3370000Y-2590000D01*
X3370000Y-2440000D02*
G01*
X3400000Y-2410000D01*
X3400000Y-1673499D01*
X3321199Y-1594600D01*
X1960000Y-1400000D02*
G01*
X1996599Y-1436599D01*
X1996599Y-2101199D01*
X1987299Y-2110500D01*
X1200000Y-450000D02*
G01*
X1358699Y-608699D01*
X1358699Y-1816399D01*
X1456999Y-1914699D01*
X2681700Y-1258000D02*
G01*
X2677600Y-1253899D01*
X2942299Y-920300D02*
G01*
X2942299Y-1086399D01*
X2770699Y-1258000D01*
X2681700Y-1258000D01*
X2760000Y-2000000D02*
G01*
X2622200Y-1862199D01*
X2622200Y-1317600D01*
X2681700Y-1258000D01*
X2400000Y-450000D02*
G01*
X2346300Y-396300D01*
X2198400Y-396300D01*
X2163000Y-431700D01*
X2163000Y-793699D01*
X2337100Y-967800D01*
X2337100Y-1181900D01*
X2207100Y-1311900D01*
X2207100Y-2272899D01*
X2170000Y-2310000D01*
X3160000Y-1400000D02*
G01*
X3238199Y-1321799D01*
X3238199Y-1031399D01*
X3062700Y-855900D01*
X3062700Y-328899D01*
X4740000Y-1410000D02*
G01*
X4833100Y-1316900D01*
X4833100Y-890100D01*
X4403100Y-460000D01*
X4200000Y-460000D01*
X3060000Y-1400000D02*
G01*
X3060000Y-1207199D01*
X2964499Y-1111700D01*
X2300000Y-1050000D02*
G01*
X2121099Y-1229000D01*
X2121099Y-1506900D01*
X2108900Y-1519099D01*
X2108900Y-2271100D01*
X2070000Y-2310000D01*
X4740000Y-1510000D02*
G01*
X4690000Y-1460000D01*
X4493900Y-1460000D01*
X4100000Y-1066100D01*
X4100000Y-1060000D01*
X3572899Y-1768400D02*
G01*
X3597799Y-1743400D01*
X3597799Y-1385100D01*
X3545200Y-1332399D01*
X3545200Y-1105199D01*
X3500000Y-1060000D01*
X3562799Y-1020500D02*
G01*
X3562799Y-1301999D01*
X3597799Y-1337100D01*
X3597799Y-1367899D01*
X3610000Y-1380100D01*
X3610000Y-2217199D01*
X3441599Y-2385599D01*
X3441599Y-2402800D01*
X3434499Y-2409899D01*
X3434499Y-2409899D01*
X3420000Y-2424299D01*
X3420000Y-2450700D01*
X3407899Y-2462800D01*
X3407899Y-2607199D01*
X3040299Y-2974800D01*
X2634799Y-2974800D01*
X2570000Y-2910000D01*
X3860000Y-1400000D02*
G01*
X3655000Y-1195000D01*
X3655000Y-1062300D01*
X3613199Y-1020500D01*
X3562799Y-1020500D01*
X3100000Y-460000D02*
G01*
X3140600Y-419499D01*
X3313500Y-419499D01*
X3350000Y-455999D01*
X3350000Y-466799D01*
X3562799Y-679600D01*
X3562799Y-1020500D01*
X3449600Y-2835300D02*
G01*
X3509499Y-2775300D01*
X3509499Y-2410999D01*
X3712299Y-2208299D01*
X3712299Y-1447699D01*
X3760000Y-1400000D01*
X2200000Y-1050000D02*
G01*
X2108900Y-1141100D01*
X2108900Y-1484000D01*
X2096800Y-1496100D01*
X2096800Y-2183200D01*
X1970000Y-2310000D01*
X4740000Y-1610000D02*
G01*
X4698500Y-1568499D01*
X4508500Y-1568499D01*
X4000000Y-1060000D01*
X3060000Y-2000000D02*
G01*
X3060000Y-1700900D01*
X2818199Y-1459099D01*
X2818199Y-1369600D01*
X2741499Y-1292899D01*
X3400000Y-1060000D02*
G01*
X3518999Y-1179000D01*
X3518999Y-1881199D01*
X3560000Y-2000000D02*
G01*
X3497899Y-1937899D01*
X3497899Y-1227100D01*
X3353199Y-1082399D01*
X3353199Y-513200D01*
X3300000Y-460000D01*
X3470000Y-2890000D02*
G01*
X3525000Y-2835000D01*
X3525000Y-2440300D01*
X3963199Y-2001999D01*
X3963199Y-1414600D01*
X3750000Y-1201399D01*
X3750000Y-510000D01*
X3700000Y-460000D01*
X3570000Y-2440000D02*
G01*
X3570000Y-2419099D01*
X3875399Y-2113699D01*
X3990399Y-2113699D01*
X3998999Y-2122399D01*
X3560000Y-1400000D02*
G01*
X3550100Y-1409899D01*
X3550100Y-1929000D01*
X3597799Y-1976799D01*
X3597799Y-2156599D01*
X3428199Y-2326199D01*
X3428199Y-2399000D01*
X3399300Y-2427899D01*
X3399300Y-2451700D01*
X3378900Y-2472100D01*
X3358999Y-2472100D01*
X3144200Y-2257300D01*
X3097700Y-2257300D01*
X4191999Y-1103099D02*
G01*
X4186599Y-1103099D01*
X4158599Y-1075199D01*
X4158599Y-818600D01*
X3800000Y-460000D01*
X4740000Y-1010000D02*
G01*
X4690000Y-1060000D01*
X4305100Y-1060000D01*
X4261999Y-1103099D01*
X4191999Y-1103099D01*
X4191999Y-1103099D02*
G01*
X4191999Y-1110999D01*
X2370000Y-2310000D02*
G01*
X2323400Y-2263400D01*
X2323400Y-1369400D01*
X2361400Y-1331399D01*
X2361400Y-454400D01*
X2316999Y-410000D01*
X2240000Y-410000D01*
X2200000Y-450000D01*
X4740000Y-1210000D02*
G01*
X4800600Y-1149499D01*
X4800600Y-895999D01*
X4416499Y-511999D01*
X4051999Y-511999D01*
X4000000Y-460000D01*
X3600000Y-460000D02*
G01*
X3653400Y-406599D01*
X3719700Y-406599D01*
X3762100Y-449000D01*
X3762100Y-483400D01*
X4137899Y-859099D01*
X4137899Y-1071599D01*
X4170900Y-1104600D01*
X4170900Y-1119800D01*
X4183199Y-1132100D01*
X4362100Y-1132100D01*
X4640000Y-1410000D01*
X2656499Y-603200D02*
G01*
X2656499Y-721599D01*
X2732100Y-797199D01*
X2732100Y-1075300D01*
X2496599Y-1310700D01*
X2496599Y-2283400D01*
X2470000Y-2310000D01*
X2095799Y-600500D02*
G01*
X2100000Y-596300D01*
X2100000Y-450000D01*
X4740000Y-1110000D02*
G01*
X4782500Y-1067600D01*
X4782500Y-895000D01*
X4423599Y-536199D01*
X3976199Y-536199D01*
X3900000Y-460000D01*
X2670000Y-2310000D02*
G01*
X2610000Y-2250000D01*
X2610000Y-1450000D01*
X2560000Y-1400000D01*
X3770000Y-2590000D02*
G01*
X3670000Y-2690000D01*
X3670000Y-2890000D01*
X4740000Y-1910000D02*
G01*
X4680100Y-1969899D01*
X4680100Y-2029499D01*
X4649600Y-2060000D01*
X4631599Y-2060000D01*
X3824300Y-2867300D01*
X3824300Y-2892500D01*
X3787799Y-2929000D01*
X3708999Y-2929000D01*
X3670000Y-2890000D01*
X3200000Y-1060000D02*
G01*
X3118199Y-1141799D01*
X3118199Y-2013299D01*
X3146099Y-2041199D01*
X3218800Y-2041199D01*
X3260000Y-2000000D01*
X2300000Y-450000D02*
G01*
X2349300Y-499299D01*
X2349300Y-1247600D01*
X2310000Y-1286799D01*
X2310000Y-2270000D01*
X2270000Y-2310000D01*
X4740000Y-1310000D02*
G01*
X4816599Y-1233400D01*
X4816599Y-892699D01*
X4423599Y-499800D01*
X4139799Y-499800D01*
X4100000Y-460000D01*
X3770000Y-2890000D02*
G01*
X4021599Y-2638400D01*
X4021599Y-1620900D01*
X4016199Y-1615500D01*
X4016199Y-1337300D01*
X3762200Y-1083200D01*
X3762200Y-505000D01*
X3750000Y-492800D01*
X3750000Y-454099D01*
X3714700Y-418699D01*
X3689499Y-418699D01*
X3650000Y-458200D01*
X3650000Y-472300D01*
X3624099Y-498200D01*
X3538199Y-498200D01*
X3500000Y-460000D01*
D11*
X1456999Y-1941799D02*
G01*
X1445799Y-1941799D01*
X1151499Y-1647500D01*
X1018699Y-1647500D01*
X835599Y-1464400D01*
X1746999Y-1649000D02*
G01*
X1746999Y-1663000D01*
X1468199Y-1941799D01*
X1456999Y-1941799D01*
X1456999Y-2559000D02*
G01*
X1456999Y-1941799D01*
X2560000Y-2000000D02*
G01*
X2516300Y-1956300D01*
X2516300Y-1376999D01*
X2833199Y-1060000D01*
X2900000Y-1060000D01*
X2560000Y-2000000D02*
G01*
X2520000Y-2040000D01*
X2520000Y-2682600D01*
X2620000Y-2782600D01*
X2620000Y-2925500D01*
X2650699Y-2956199D01*
X2723800Y-2956199D01*
X2770000Y-2910000D01*
X3066999Y-2699000D02*
G01*
X2981000Y-2699000D01*
X2770000Y-2910000D01*
X2696999Y-709000D02*
G01*
X2900000Y-911999D01*
X2900000Y-1060000D01*
X2696999Y-709000D02*
G01*
X2900000Y-505999D01*
X2900000Y-460000D01*
X896999Y-699000D02*
G01*
X1100000Y-495999D01*
X1100000Y-450000D01*
X835599Y-1464400D02*
G01*
X835599Y-760399D01*
X896999Y-699000D01*
X700000Y-1600000D02*
G01*
X835599Y-1464400D01*
X3223000Y-2543000D02*
G01*
X3066999Y-2699000D01*
X1220000Y-2559000D02*
G01*
X1456999Y-2559000D01*
X1210000Y-2680000D02*
G01*
X1210000Y-2569000D01*
X1220000Y-2559000D01*
X1220000Y-2420000D02*
G01*
X1220000Y-2559000D01*
X3223000Y-2543000D02*
G01*
X3270000Y-2590000D01*
X3170000Y-2440000D02*
G01*
X3170000Y-2490000D01*
X3223000Y-2543000D01*
D10*
X4488999Y-2621500D02*
G01*
X4694300Y-2416199D01*
X4694300Y-2380599D01*
X4707600Y-2367300D01*
X4745799Y-2367300D01*
X4838800Y-2274200D01*
X4838800Y-2010000D01*
X4488999Y-2621500D02*
G01*
X4354200Y-2486599D01*
X4488999Y-2641999D02*
G01*
X4488999Y-2621500D01*
X4488999Y-2898000D02*
G01*
X4488999Y-2641999D01*
X1040900Y-2170000D02*
G01*
X1040900Y-2299099D01*
X920000Y-2420000D01*
D11*
X1770000Y-2310000D02*
G01*
X1960000Y-2120000D01*
X1960000Y-2000000D01*
X1488699Y-2686199D02*
G01*
X1770000Y-2405000D01*
X1770000Y-2310000D01*
X1456999Y-2659000D02*
G01*
X1484200Y-2686199D01*
X1488699Y-2686199D01*
X1488699Y-2686199D02*
G01*
X1670000Y-2867500D01*
X4311000Y-2898000D02*
G01*
X4311000Y-2641999D01*
X2696999Y-809000D02*
G01*
X2641000Y-809000D01*
X2400000Y-1050000D01*
X896999Y-799000D02*
G01*
X896999Y-1443000D01*
X1061000Y-1606999D01*
X1960000Y-2000000D02*
G01*
X1960000Y-1957500D01*
X1746999Y-1749000D02*
G01*
X1955500Y-1957500D01*
X1960000Y-1957500D01*
X1670000Y-2910000D02*
G01*
X1670000Y-2867500D01*
X4740000Y-910000D02*
G01*
X4690000Y-960000D01*
X4300000Y-960000D01*
X4200000Y-1060000D01*
X1100000Y-2170000D02*
G01*
X1100000Y-1845999D01*
X1051000Y-1796999D01*
D10*
X2270000Y-2910000D02*
G01*
X2130000Y-2770000D01*
X2130000Y-2030000D01*
X2160000Y-2000000D01*
X3300000Y-1060000D02*
G01*
X3300000Y-1860000D01*
X3160000Y-2000000D01*
X3100000Y-1436599D02*
G01*
X3037799Y-1436599D01*
X3006499Y-1405300D01*
X3100000Y-1436599D02*
G01*
X3100000Y-2019200D01*
X3138599Y-2057800D01*
X3302200Y-2057800D01*
X3360000Y-2000000D01*
X3100000Y-1060000D02*
G01*
X3100000Y-1436599D01*
X3460000Y-2000000D02*
G01*
X3460000Y-1628400D01*
X3321999Y-1490399D01*
X3321999Y-1244099D01*
X3341000Y-1225100D01*
X3341000Y-600999D01*
X3200000Y-460000D01*
X3899099Y-1462500D02*
G01*
X3899099Y-1380700D01*
X3737899Y-1219499D01*
X3737899Y-797899D01*
X3400000Y-460000D01*
X3941999Y-1462500D02*
G01*
X3899099Y-1462500D01*
X3760000Y-2000000D02*
G01*
X3796999Y-2036999D01*
X3878800Y-2036999D01*
X3899099Y-2016799D01*
X3899099Y-1462500D01*
X3270000Y-2440000D02*
G01*
X3250600Y-2440000D01*
X3010900Y-2200300D01*
X3010900Y-1671700D01*
X2800000Y-1460799D01*
X2800000Y-1387300D01*
X2771800Y-1359099D01*
X2700900Y-1359099D01*
X2660000Y-1400000D01*
X1470000Y-1800000D02*
G01*
X1906999Y-1363000D01*
X2023000Y-1363000D01*
X2060000Y-1400000D01*
X700000Y-2200000D02*
G01*
X865900Y-2365900D01*
X865900Y-2437300D01*
X1375200Y-2946599D01*
X1733400Y-2946599D01*
X1770000Y-2910000D01*
X2070000Y-2910000D02*
G01*
X1738800Y-2578800D01*
X1738800Y-2509000D01*
D11*
X700000Y-1700000D02*
G01*
X700000Y-1752399D01*
X700000Y-1752399D02*
G01*
X652800Y-1799600D01*
X652800Y-2252800D01*
X700000Y-2300000D01*
D10*
X910000Y-2680000D02*
G01*
X910000Y-2550500D01*
X709499Y-2350000D01*
X690500Y-2350000D01*
X633899Y-2293400D01*
X633899Y-1270000D01*
X700000Y-1203800D01*
X2170000Y-2910000D02*
G01*
X1736700Y-2476700D01*
X3770000Y-2440000D02*
G01*
X3884099Y-2325900D01*
X3884099Y-2134800D01*
D12*
G01*
X1960000Y-2000000D03*
D13*
G01*
X2060000Y-2000000D03*
G01*
X2160000Y-2000000D03*
G01*
X2260000Y-2000000D03*
G01*
X2360000Y-2000000D03*
G01*
X2460000Y-2000000D03*
G01*
X2560000Y-2000000D03*
G01*
X2660000Y-2000000D03*
G01*
X2760000Y-2000000D03*
G01*
X2860000Y-2000000D03*
G01*
X2960000Y-2000000D03*
G01*
X3060000Y-2000000D03*
G01*
X3160000Y-2000000D03*
G01*
X3260000Y-2000000D03*
G01*
X3360000Y-2000000D03*
G01*
X3460000Y-2000000D03*
G01*
X3560000Y-2000000D03*
G01*
X3660000Y-2000000D03*
G01*
X3760000Y-2000000D03*
G01*
X3860000Y-2000000D03*
G01*
X3860000Y-1400000D03*
G01*
X3760000Y-1400000D03*
G01*
X3660000Y-1400000D03*
G01*
X3560000Y-1400000D03*
G01*
X3460000Y-1400000D03*
G01*
X3360000Y-1400000D03*
G01*
X3260000Y-1400000D03*
G01*
X3160000Y-1400000D03*
G01*
X3060000Y-1400000D03*
G01*
X2960000Y-1400000D03*
G01*
X2860000Y-1400000D03*
G01*
X2760000Y-1400000D03*
G01*
X2660000Y-1400000D03*
G01*
X2560000Y-1400000D03*
G01*
X2460000Y-1400000D03*
G01*
X2360000Y-1400000D03*
G01*
X2260000Y-1400000D03*
G01*
X2160000Y-1400000D03*
G01*
X2060000Y-1400000D03*
G01*
X1960000Y-1400000D03*
D12*
G01*
X1670000Y-2910000D03*
D13*
G01*
X1770000Y-2910000D03*
G01*
X1870000Y-2910000D03*
G01*
X1970000Y-2910000D03*
G01*
X2070000Y-2910000D03*
G01*
X2170000Y-2910000D03*
G01*
X2270000Y-2910000D03*
G01*
X2370000Y-2910000D03*
G01*
X2470000Y-2910000D03*
G01*
X2570000Y-2910000D03*
G01*
X2670000Y-2910000D03*
G01*
X2770000Y-2910000D03*
G01*
X2770000Y-2310000D03*
G01*
X2670000Y-2310000D03*
G01*
X2570000Y-2310000D03*
G01*
X2470000Y-2310000D03*
G01*
X2370000Y-2310000D03*
G01*
X2270000Y-2310000D03*
G01*
X2170000Y-2310000D03*
G01*
X2070000Y-2310000D03*
G01*
X1970000Y-2310000D03*
G01*
X1870000Y-2310000D03*
G01*
X1770000Y-2310000D03*
G01*
X1670000Y-2310000D03*
D12*
G01*
X2900000Y-1060000D03*
D13*
G01*
X3000000Y-1060000D03*
G01*
X3100000Y-1060000D03*
G01*
X3200000Y-1060000D03*
G01*
X3300000Y-1060000D03*
G01*
X3400000Y-1060000D03*
G01*
X3500000Y-1060000D03*
G01*
X3600000Y-1060000D03*
G01*
X3700000Y-1060000D03*
G01*
X3800000Y-1060000D03*
G01*
X3900000Y-1060000D03*
G01*
X4000000Y-1060000D03*
G01*
X4100000Y-1060000D03*
G01*
X4200000Y-1060000D03*
G01*
X4200000Y-460000D03*
G01*
X4100000Y-460000D03*
G01*
X4000000Y-460000D03*
G01*
X3900000Y-460000D03*
G01*
X3800000Y-460000D03*
G01*
X3700000Y-460000D03*
G01*
X3600000Y-460000D03*
G01*
X3500000Y-460000D03*
G01*
X3400000Y-460000D03*
G01*
X3300000Y-460000D03*
G01*
X3200000Y-460000D03*
G01*
X3100000Y-460000D03*
G01*
X3000000Y-460000D03*
G01*
X2900000Y-460000D03*
D12*
G01*
X1100000Y-1050000D03*
D13*
G01*
X1200000Y-1050000D03*
G01*
X1300000Y-1050000D03*
G01*
X1400000Y-1050000D03*
G01*
X1500000Y-1050000D03*
G01*
X1600000Y-1050000D03*
G01*
X1700000Y-1050000D03*
G01*
X1800000Y-1050000D03*
G01*
X1900000Y-1050000D03*
G01*
X2000000Y-1050000D03*
G01*
X2100000Y-1050000D03*
G01*
X2200000Y-1050000D03*
G01*
X2300000Y-1050000D03*
G01*
X2400000Y-1050000D03*
G01*
X2400000Y-450000D03*
G01*
X2300000Y-450000D03*
G01*
X2200000Y-450000D03*
G01*
X2100000Y-450000D03*
G01*
X2000000Y-450000D03*
G01*
X1900000Y-450000D03*
G01*
X1800000Y-450000D03*
G01*
X1700000Y-450000D03*
G01*
X1600000Y-450000D03*
G01*
X1500000Y-450000D03*
G01*
X1400000Y-450000D03*
G01*
X1300000Y-450000D03*
G01*
X1200000Y-450000D03*
G01*
X1100000Y-450000D03*
D14*
G01*
X1470000Y-1800000D03*
G01*
X1470000Y-1607080D03*
D15*
G01*
X1151000Y-1796999D03*
G01*
X1051000Y-1796999D03*
G01*
X1161000Y-1606999D03*
G01*
X1061000Y-1606999D03*
D16*
G01*
X4488999Y-2641999D03*
G01*
X4488999Y-2898000D03*
G01*
X4311000Y-2641999D03*
G01*
X4311000Y-2898000D03*
D17*
G01*
X700000Y-2000000D03*
G01*
X700000Y-2100000D03*
G01*
X700000Y-2200000D03*
G01*
X700000Y-2300000D03*
G01*
X700000Y-2400000D03*
D18*
G01*
X700000Y-2500000D03*
D15*
G01*
X2696999Y-709000D03*
G01*
X2696999Y-809000D03*
G01*
X896999Y-699000D03*
G01*
X896999Y-799000D03*
G01*
X1746999Y-1649000D03*
G01*
X1746999Y-1749000D03*
G01*
X3066999Y-2699000D03*
G01*
X3066999Y-2799000D03*
G01*
X1456999Y-2559000D03*
G01*
X1456999Y-2659000D03*
D19*
G01*
X700000Y-1203800D03*
G01*
X700000Y-1303800D03*
D16*
G01*
X910000Y-2680000D03*
G01*
X1210000Y-2680000D03*
D18*
G01*
X4740000Y-2410000D03*
D17*
G01*
X4640000Y-2410000D03*
G01*
X4740000Y-2310000D03*
G01*
X4640000Y-2310000D03*
G01*
X4740000Y-2210000D03*
G01*
X4640000Y-2210000D03*
G01*
X4740000Y-2110000D03*
G01*
X4640000Y-2110000D03*
G01*
X4740000Y-2010000D03*
G01*
X4640000Y-2010000D03*
G01*
X4740000Y-1910000D03*
G01*
X4640000Y-1910000D03*
G01*
X4740000Y-1810000D03*
G01*
X4640000Y-1810000D03*
G01*
X4740000Y-1710000D03*
G01*
X4640000Y-1710000D03*
G01*
X4740000Y-1610000D03*
G01*
X4640000Y-1610000D03*
G01*
X4740000Y-1510000D03*
G01*
X4640000Y-1510000D03*
G01*
X4740000Y-1410000D03*
G01*
X4640000Y-1410000D03*
G01*
X4740000Y-1310000D03*
G01*
X4640000Y-1310000D03*
G01*
X4740000Y-1210000D03*
G01*
X4640000Y-1210000D03*
G01*
X4740000Y-1110000D03*
G01*
X4640000Y-1110000D03*
G01*
X4740000Y-1010000D03*
G01*
X4640000Y-1010000D03*
G01*
X4740000Y-910000D03*
G01*
X4640000Y-910000D03*
D20*
G01*
X920000Y-2420000D03*
G01*
X1220000Y-2420000D03*
D21*
G01*
X1100000Y-2170000D03*
G01*
X1040900Y-2170000D03*
D12*
G01*
X3270000Y-2890000D03*
D13*
G01*
X3370000Y-2890000D03*
G01*
X3470000Y-2890000D03*
G01*
X3570000Y-2890000D03*
G01*
X3670000Y-2890000D03*
G01*
X3770000Y-2890000D03*
G01*
X3870000Y-2890000D03*
G01*
X3870000Y-2590000D03*
G01*
X3770000Y-2590000D03*
G01*
X3670000Y-2590000D03*
G01*
X3570000Y-2590000D03*
G01*
X3470000Y-2590000D03*
G01*
X3370000Y-2590000D03*
G01*
X3270000Y-2590000D03*
D22*
G01*
X700000Y-1700000D03*
D23*
G01*
X700000Y-1600000D03*
D24*
G01*
X3169949Y-2439949D03*
D25*
G01*
X3270000Y-2440000D03*
G01*
X3370000Y-2440000D03*
G01*
X3470000Y-2440000D03*
G01*
X3570000Y-2440000D03*
G01*
X3670000Y-2440000D03*
G01*
X3770000Y-2440000D03*
G01*
X3870000Y-2440000D03*
G01*
X3970000Y-2440000D03*
D26*
G01*
X4037299Y-1606799D03*
G01*
X2073500Y-776500D03*
G01*
X3638699Y-2132899D03*
G01*
X3631099Y-1135900D03*
G01*
X1984899Y-624299D03*
G01*
X2996499Y-1178200D03*
G01*
X3321199Y-1594600D03*
G01*
X1987299Y-2110500D03*
G01*
X1456999Y-1914699D03*
G01*
X2677600Y-1253899D03*
G01*
X2942299Y-920300D03*
G01*
X3062700Y-328899D03*
G01*
X2964499Y-1111700D03*
G01*
X3572899Y-1768400D03*
G01*
X3449600Y-2835300D03*
G01*
X2741499Y-1292899D03*
G01*
X3518999Y-1881199D03*
G01*
X3998999Y-2122399D03*
G01*
X3097700Y-2257300D03*
G01*
X4191999Y-1110999D03*
G01*
X2656499Y-603200D03*
G01*
X2095799Y-600500D03*
G01*
X4838800Y-2010000D03*
G01*
X4354200Y-2486599D03*
G01*
X3006499Y-1405300D03*
G01*
X3941999Y-1462500D03*
G01*
X1738800Y-2509000D03*
G01*
X1736700Y-2476700D03*
G01*
X3884099Y-2134800D03*
M02*
