G04 Layer: TopSilkscreenLayer*
G04 EasyEDA v6.5.39, 2023-12-30 12:54:19*
G04 fb32ffe7bce1468d89b920df2382912b,ced954a3207a4d028f07e6fa70cdf7d5,10*
G04 Gerber Generator version 0.2*
G04 Scale: 100 percent, Rotated: No, Reflected: No *
G04 Dimensions in inches *
G04 leading zeros omitted , absolute positions ,3 integer and 6 decimal *
%FSLAX36Y36*%
%MOIN*%

%ADD10C,0.0070*%
%ADD11C,0.0090*%
%ADD12C,0.0100*%
%ADD13C,0.0079*%
%ADD14C,0.0080*%
%ADD15C,0.0080*%
%ADD16C,0.0195*%

%LPD*%
D10*
X4733599Y-2520000D02*
G01*
X4731599Y-2515900D01*
X4725500Y-2509800D01*
X4768400Y-2509800D01*
X4635699Y-2528000D02*
G01*
X4633599Y-2528000D01*
X4629499Y-2525900D01*
X4627500Y-2523899D01*
X4625500Y-2519800D01*
X4625500Y-2511599D01*
X4627500Y-2507500D01*
X4629499Y-2505500D01*
X4633599Y-2503400D01*
X4637700Y-2503400D01*
X4641800Y-2505500D01*
X4648000Y-2509499D01*
X4668400Y-2530000D01*
X4668400Y-2501399D01*
X4615500Y-825900D02*
G01*
X4615500Y-803400D01*
X4631800Y-815700D01*
X4631800Y-809499D01*
X4633900Y-805500D01*
X4635900Y-803400D01*
X4641999Y-801399D01*
X4646099Y-801399D01*
X4652299Y-803400D01*
X4656400Y-807500D01*
X4658400Y-813600D01*
X4658400Y-819800D01*
X4656400Y-825900D01*
X4654300Y-828000D01*
X4650200Y-830000D01*
X4625699Y-785799D02*
G01*
X4623599Y-785799D01*
X4619499Y-783800D01*
X4617500Y-781700D01*
X4615500Y-777600D01*
X4615500Y-769499D01*
X4617500Y-765399D01*
X4619499Y-763299D01*
X4623599Y-761300D01*
X4627700Y-761300D01*
X4631800Y-763299D01*
X4638000Y-767399D01*
X4658400Y-787899D01*
X4658400Y-759200D01*
X4715500Y-815900D02*
G01*
X4715500Y-793400D01*
X4731800Y-805700D01*
X4731800Y-799499D01*
X4733900Y-795500D01*
X4735900Y-793400D01*
X4741999Y-791399D01*
X4746099Y-791399D01*
X4752299Y-793400D01*
X4756400Y-797500D01*
X4758400Y-803600D01*
X4758400Y-809800D01*
X4756400Y-815900D01*
X4754300Y-818000D01*
X4750200Y-820000D01*
X4723599Y-777899D02*
G01*
X4721599Y-773800D01*
X4715500Y-767600D01*
X4758400Y-767600D01*
X4810000Y-2385500D02*
G01*
X4826400Y-2428400D01*
X4842700Y-2385500D02*
G01*
X4826400Y-2428400D01*
X4886899Y-2395700D02*
G01*
X4884899Y-2391599D01*
X4880799Y-2387500D01*
X4876700Y-2385500D01*
X4868500Y-2385500D01*
X4864399Y-2387500D01*
X4860299Y-2391599D01*
X4858299Y-2395700D01*
X4856199Y-2401799D01*
X4856199Y-2411999D01*
X4858299Y-2418200D01*
X4860299Y-2422300D01*
X4864399Y-2426399D01*
X4868500Y-2428400D01*
X4876700Y-2428400D01*
X4880799Y-2426399D01*
X4884899Y-2422300D01*
X4886899Y-2418200D01*
X4931099Y-2395700D02*
G01*
X4928999Y-2391599D01*
X4925000Y-2387500D01*
X4920900Y-2385500D01*
X4912700Y-2385500D01*
X4908599Y-2387500D01*
X4904499Y-2391599D01*
X4902500Y-2395700D01*
X4900400Y-2401799D01*
X4900400Y-2411999D01*
X4902500Y-2418200D01*
X4904499Y-2422300D01*
X4908599Y-2426399D01*
X4912700Y-2428400D01*
X4920900Y-2428400D01*
X4925000Y-2426399D01*
X4928999Y-2422300D01*
X4931099Y-2418200D01*
X4846800Y-2267300D02*
G01*
X4810000Y-2332700D01*
X4860299Y-2275500D02*
G01*
X4860299Y-2318400D01*
X4873800Y-2275500D02*
G01*
X4873800Y-2318400D01*
X4873800Y-2275500D02*
G01*
X4892200Y-2275500D01*
X4898400Y-2277500D01*
X4900400Y-2279499D01*
X4902500Y-2283600D01*
X4902500Y-2287700D01*
X4900400Y-2291799D01*
X4898400Y-2293899D01*
X4892200Y-2295900D01*
X4873800Y-2295900D01*
X4888100Y-2295900D02*
G01*
X4902500Y-2318400D01*
X4928199Y-2275500D02*
G01*
X4924099Y-2277500D01*
X4920000Y-2281599D01*
X4918000Y-2285700D01*
X4916000Y-2291799D01*
X4916000Y-2301999D01*
X4918000Y-2308200D01*
X4920000Y-2312300D01*
X4924099Y-2316399D01*
X4928199Y-2318400D01*
X4936400Y-2318400D01*
X4940500Y-2316399D01*
X4944600Y-2312300D01*
X4946599Y-2308200D01*
X4948699Y-2301999D01*
X4948699Y-2291799D01*
X4946599Y-2285700D01*
X4944600Y-2281599D01*
X4940500Y-2277500D01*
X4936400Y-2275500D01*
X4928199Y-2275500D01*
X4934399Y-2310200D02*
G01*
X4946599Y-2322500D01*
X4506400Y-2385500D02*
G01*
X4490000Y-2428400D01*
X4506400Y-2385500D02*
G01*
X4522700Y-2428400D01*
X4496099Y-2414099D02*
G01*
X4516599Y-2414099D01*
X4548500Y-2385500D02*
G01*
X4542399Y-2387500D01*
X4538299Y-2393600D01*
X4536199Y-2403899D01*
X4536199Y-2410000D01*
X4538299Y-2420200D01*
X4542399Y-2426399D01*
X4548500Y-2428400D01*
X4552600Y-2428400D01*
X4558699Y-2426399D01*
X4562799Y-2420200D01*
X4564899Y-2410000D01*
X4564899Y-2403899D01*
X4562799Y-2393600D01*
X4558699Y-2387500D01*
X4552600Y-2385500D01*
X4548500Y-2385500D01*
X4486400Y-895500D02*
G01*
X4470000Y-938400D01*
X4486400Y-895500D02*
G01*
X4502700Y-938400D01*
X4476099Y-924099D02*
G01*
X4496599Y-924099D01*
X4516199Y-903600D02*
G01*
X4520299Y-901599D01*
X4526499Y-895500D01*
X4526499Y-938400D01*
X4564499Y-895500D02*
G01*
X4543999Y-895500D01*
X4541999Y-913899D01*
X4543999Y-911799D01*
X4550200Y-909800D01*
X4556300Y-909800D01*
X4562500Y-911799D01*
X4566499Y-915900D01*
X4568599Y-921999D01*
X4568599Y-926100D01*
X4566499Y-932300D01*
X4562500Y-936399D01*
X4556300Y-938400D01*
X4550200Y-938400D01*
X4543999Y-936399D01*
X4541999Y-934299D01*
X4540000Y-930199D01*
X4836800Y-2177300D02*
G01*
X4800000Y-2242700D01*
X4850299Y-2185500D02*
G01*
X4850299Y-2228400D01*
X4850299Y-2185500D02*
G01*
X4876899Y-2185500D01*
X4850299Y-2205900D02*
G01*
X4866700Y-2205900D01*
X4890400Y-2185500D02*
G01*
X4890400Y-2228400D01*
X4903900Y-2185500D02*
G01*
X4903900Y-2228400D01*
X4903900Y-2185500D02*
G01*
X4922299Y-2185500D01*
X4928500Y-2187500D01*
X4930500Y-2189499D01*
X4932500Y-2193600D01*
X4932500Y-2197700D01*
X4930500Y-2201799D01*
X4928500Y-2203899D01*
X4922299Y-2205900D01*
X4903900Y-2205900D01*
X4918199Y-2205900D02*
G01*
X4932500Y-2228400D01*
X4958299Y-2185500D02*
G01*
X4954200Y-2187500D01*
X4950100Y-2191599D01*
X4948100Y-2195700D01*
X4946000Y-2201799D01*
X4946000Y-2211999D01*
X4948100Y-2218200D01*
X4950100Y-2222300D01*
X4954200Y-2226399D01*
X4958299Y-2228400D01*
X4966499Y-2228400D01*
X4970600Y-2226399D01*
X4974700Y-2222300D01*
X4976700Y-2218200D01*
X4978800Y-2211999D01*
X4978800Y-2201799D01*
X4976700Y-2195700D01*
X4974700Y-2191599D01*
X4970600Y-2187500D01*
X4966499Y-2185500D01*
X4958299Y-2185500D01*
X4964499Y-2220200D02*
G01*
X4976700Y-2232500D01*
X4846800Y-2087300D02*
G01*
X4810000Y-2152700D01*
X4860299Y-2095500D02*
G01*
X4860299Y-2138400D01*
X4860299Y-2095500D02*
G01*
X4888999Y-2138400D01*
X4888999Y-2095500D02*
G01*
X4888999Y-2138400D01*
X4902500Y-2095500D02*
G01*
X4902500Y-2138400D01*
X4902500Y-2095500D02*
G01*
X4918800Y-2138400D01*
X4935200Y-2095500D02*
G01*
X4918800Y-2138400D01*
X4935200Y-2095500D02*
G01*
X4935200Y-2138400D01*
X4948699Y-2095500D02*
G01*
X4948699Y-2138400D01*
X4846800Y-1977300D02*
G01*
X4810000Y-2042699D01*
X4860299Y-1985500D02*
G01*
X4860299Y-2028400D01*
X4860299Y-1985500D02*
G01*
X4878699Y-1985500D01*
X4884899Y-1987500D01*
X4886899Y-1989499D01*
X4888999Y-1993600D01*
X4888999Y-1997699D01*
X4886899Y-2001799D01*
X4884899Y-2003899D01*
X4878699Y-2005900D01*
X4860299Y-2005900D01*
X4874600Y-2005900D02*
G01*
X4888999Y-2028400D01*
X4902500Y-1985500D02*
G01*
X4902500Y-2028400D01*
X4902500Y-1985500D02*
G01*
X4928999Y-1985500D01*
X4902500Y-2005900D02*
G01*
X4918800Y-2005900D01*
X4902500Y-2028400D02*
G01*
X4928999Y-2028400D01*
X4971199Y-1991599D02*
G01*
X4967100Y-1987500D01*
X4961000Y-1985500D01*
X4952799Y-1985500D01*
X4946599Y-1987500D01*
X4942500Y-1991599D01*
X4942500Y-1995700D01*
X4944600Y-1999800D01*
X4946599Y-2001799D01*
X4950699Y-2003899D01*
X4963000Y-2008000D01*
X4967100Y-2010000D01*
X4969099Y-2011999D01*
X4971199Y-2016100D01*
X4971199Y-2022300D01*
X4967100Y-2026399D01*
X4961000Y-2028400D01*
X4952799Y-2028400D01*
X4946599Y-2026399D01*
X4942500Y-2022300D01*
X4820000Y-1885500D02*
G01*
X4820000Y-1928400D01*
X4820000Y-1885500D02*
G01*
X4846599Y-1885500D01*
X4820000Y-1905900D02*
G01*
X4836400Y-1905900D01*
X4820000Y-1928400D02*
G01*
X4846599Y-1928400D01*
X4820000Y-1795500D02*
G01*
X4820000Y-1838400D01*
X4820000Y-1795500D02*
G01*
X4838400Y-1795500D01*
X4844499Y-1797500D01*
X4846599Y-1799499D01*
X4848599Y-1803600D01*
X4848599Y-1807699D01*
X4846599Y-1811799D01*
X4844499Y-1813899D01*
X4838400Y-1815900D01*
X4820000Y-1815900D01*
X4834300Y-1815900D02*
G01*
X4848599Y-1838400D01*
X4898999Y-1787300D02*
G01*
X4862100Y-1852699D01*
X4912500Y-1795500D02*
G01*
X4922700Y-1838400D01*
X4932900Y-1795500D02*
G01*
X4922700Y-1838400D01*
X4932900Y-1795500D02*
G01*
X4943100Y-1838400D01*
X4953400Y-1795500D02*
G01*
X4943100Y-1838400D01*
X4820000Y-1695500D02*
G01*
X4820000Y-1738400D01*
X4820000Y-1695500D02*
G01*
X4834300Y-1695500D01*
X4840500Y-1697500D01*
X4844499Y-1701599D01*
X4846599Y-1705700D01*
X4848599Y-1711799D01*
X4848599Y-1721999D01*
X4846599Y-1728200D01*
X4844499Y-1732300D01*
X4840500Y-1736399D01*
X4834300Y-1738400D01*
X4820000Y-1738400D01*
X4874399Y-1695500D02*
G01*
X4868299Y-1697500D01*
X4864200Y-1703600D01*
X4862100Y-1713899D01*
X4862100Y-1720000D01*
X4864200Y-1730199D01*
X4868299Y-1736399D01*
X4874399Y-1738400D01*
X4878500Y-1738400D01*
X4884600Y-1736399D01*
X4888699Y-1730199D01*
X4890799Y-1720000D01*
X4890799Y-1713899D01*
X4888699Y-1703600D01*
X4884600Y-1697500D01*
X4878500Y-1695500D01*
X4874399Y-1695500D01*
X4820000Y-995500D02*
G01*
X4820000Y-1038400D01*
X4820000Y-995500D02*
G01*
X4834300Y-995500D01*
X4840500Y-997500D01*
X4844499Y-1001599D01*
X4846599Y-1005700D01*
X4848599Y-1011799D01*
X4848599Y-1021999D01*
X4846599Y-1028200D01*
X4844499Y-1032300D01*
X4840500Y-1036399D01*
X4834300Y-1038400D01*
X4820000Y-1038400D01*
X4890799Y-995500D02*
G01*
X4870299Y-1038400D01*
X4862100Y-995500D02*
G01*
X4890799Y-995500D01*
X4840699Y-895700D02*
G01*
X4838599Y-891599D01*
X4834499Y-887500D01*
X4830500Y-885500D01*
X4822299Y-885500D01*
X4818199Y-887500D01*
X4814099Y-891599D01*
X4811999Y-895700D01*
X4810000Y-901799D01*
X4810000Y-911999D01*
X4811999Y-918200D01*
X4814099Y-922300D01*
X4818199Y-926399D01*
X4822299Y-928400D01*
X4830500Y-928400D01*
X4834499Y-926399D01*
X4838599Y-922300D01*
X4840699Y-918200D01*
X4840699Y-911999D01*
X4830500Y-911999D02*
G01*
X4840699Y-911999D01*
X4854200Y-885500D02*
G01*
X4854200Y-928400D01*
X4854200Y-885500D02*
G01*
X4882799Y-928400D01*
X4882799Y-885500D02*
G01*
X4882799Y-928400D01*
X4896300Y-885500D02*
G01*
X4896300Y-928400D01*
X4896300Y-885500D02*
G01*
X4910600Y-885500D01*
X4916800Y-887500D01*
X4920900Y-891599D01*
X4922900Y-895700D01*
X4925000Y-901799D01*
X4925000Y-911999D01*
X4922900Y-918200D01*
X4920900Y-922300D01*
X4916800Y-926399D01*
X4910600Y-928400D01*
X4896300Y-928400D01*
X4820000Y-1595500D02*
G01*
X4820000Y-1638400D01*
X4820000Y-1595500D02*
G01*
X4834300Y-1595500D01*
X4840500Y-1597500D01*
X4844499Y-1601599D01*
X4846599Y-1605700D01*
X4848599Y-1611799D01*
X4848599Y-1621999D01*
X4846599Y-1628200D01*
X4844499Y-1632300D01*
X4840500Y-1636399D01*
X4834300Y-1638400D01*
X4820000Y-1638400D01*
X4862100Y-1603600D02*
G01*
X4866199Y-1601599D01*
X4872399Y-1595500D01*
X4872399Y-1638400D01*
X4820000Y-1485500D02*
G01*
X4820000Y-1528400D01*
X4820000Y-1485500D02*
G01*
X4834300Y-1485500D01*
X4840500Y-1487500D01*
X4844499Y-1491599D01*
X4846599Y-1495700D01*
X4848599Y-1501799D01*
X4848599Y-1511999D01*
X4846599Y-1518200D01*
X4844499Y-1522300D01*
X4840500Y-1526399D01*
X4834300Y-1528400D01*
X4820000Y-1528400D01*
X4864200Y-1495700D02*
G01*
X4864200Y-1493600D01*
X4866199Y-1489499D01*
X4868299Y-1487500D01*
X4872399Y-1485500D01*
X4880500Y-1485500D01*
X4884600Y-1487500D01*
X4886700Y-1489499D01*
X4888699Y-1493600D01*
X4888699Y-1497699D01*
X4886700Y-1501799D01*
X4882600Y-1508000D01*
X4862100Y-1528400D01*
X4890799Y-1528400D01*
X4820000Y-1385500D02*
G01*
X4820000Y-1428400D01*
X4820000Y-1385500D02*
G01*
X4834300Y-1385500D01*
X4840500Y-1387500D01*
X4844499Y-1391599D01*
X4846599Y-1395700D01*
X4848599Y-1401799D01*
X4848599Y-1411999D01*
X4846599Y-1418200D01*
X4844499Y-1422300D01*
X4840500Y-1426399D01*
X4834300Y-1428400D01*
X4820000Y-1428400D01*
X4866199Y-1385500D02*
G01*
X4888699Y-1385500D01*
X4876499Y-1401799D01*
X4882600Y-1401799D01*
X4886700Y-1403899D01*
X4888699Y-1405900D01*
X4890799Y-1411999D01*
X4890799Y-1416100D01*
X4888699Y-1422300D01*
X4884600Y-1426399D01*
X4878500Y-1428400D01*
X4872399Y-1428400D01*
X4866199Y-1426399D01*
X4864200Y-1424299D01*
X4862100Y-1420199D01*
X4820000Y-1295500D02*
G01*
X4820000Y-1338400D01*
X4820000Y-1295500D02*
G01*
X4834300Y-1295500D01*
X4840500Y-1297500D01*
X4844499Y-1301599D01*
X4846599Y-1305700D01*
X4848599Y-1311799D01*
X4848599Y-1321999D01*
X4846599Y-1328200D01*
X4844499Y-1332300D01*
X4840500Y-1336399D01*
X4834300Y-1338400D01*
X4820000Y-1338400D01*
X4882600Y-1295500D02*
G01*
X4862100Y-1324099D01*
X4892799Y-1324099D01*
X4882600Y-1295500D02*
G01*
X4882600Y-1338400D01*
X4820000Y-1185500D02*
G01*
X4820000Y-1228400D01*
X4820000Y-1185500D02*
G01*
X4834300Y-1185500D01*
X4840500Y-1187500D01*
X4844499Y-1191599D01*
X4846599Y-1195700D01*
X4848599Y-1201799D01*
X4848599Y-1211999D01*
X4846599Y-1218200D01*
X4844499Y-1222300D01*
X4840500Y-1226399D01*
X4834300Y-1228400D01*
X4820000Y-1228400D01*
X4886700Y-1185500D02*
G01*
X4866199Y-1185500D01*
X4864200Y-1203899D01*
X4866199Y-1201799D01*
X4872399Y-1199800D01*
X4878500Y-1199800D01*
X4884600Y-1201799D01*
X4888699Y-1205900D01*
X4890799Y-1211999D01*
X4890799Y-1216100D01*
X4888699Y-1222300D01*
X4884600Y-1226399D01*
X4878500Y-1228400D01*
X4872399Y-1228400D01*
X4866199Y-1226399D01*
X4864200Y-1224299D01*
X4862100Y-1220199D01*
X4820000Y-1095500D02*
G01*
X4820000Y-1138400D01*
X4820000Y-1095500D02*
G01*
X4834300Y-1095500D01*
X4840500Y-1097500D01*
X4844499Y-1101599D01*
X4846599Y-1105700D01*
X4848599Y-1111799D01*
X4848599Y-1121999D01*
X4846599Y-1128200D01*
X4844499Y-1132300D01*
X4840500Y-1136399D01*
X4834300Y-1138400D01*
X4820000Y-1138400D01*
X4886700Y-1101599D02*
G01*
X4884600Y-1097500D01*
X4878500Y-1095500D01*
X4874399Y-1095500D01*
X4868299Y-1097500D01*
X4864200Y-1103600D01*
X4862100Y-1113899D01*
X4862100Y-1124099D01*
X4864200Y-1132300D01*
X4868299Y-1136399D01*
X4874399Y-1138400D01*
X4876499Y-1138400D01*
X4882600Y-1136399D01*
X4886700Y-1132300D01*
X4888699Y-1126100D01*
X4888699Y-1124099D01*
X4886700Y-1118000D01*
X4882600Y-1113899D01*
X4876499Y-1111799D01*
X4874399Y-1111799D01*
X4868299Y-1113899D01*
X4864200Y-1118000D01*
X4862100Y-1124099D01*
X4506400Y-2285500D02*
G01*
X4490000Y-2328400D01*
X4506400Y-2285500D02*
G01*
X4522700Y-2328400D01*
X4496099Y-2314099D02*
G01*
X4516599Y-2314099D01*
X4536199Y-2293600D02*
G01*
X4540299Y-2291599D01*
X4546499Y-2285500D01*
X4546499Y-2328400D01*
X4506400Y-2185500D02*
G01*
X4490000Y-2228400D01*
X4506400Y-2185500D02*
G01*
X4522700Y-2228400D01*
X4496099Y-2214099D02*
G01*
X4516599Y-2214099D01*
X4538299Y-2195700D02*
G01*
X4538299Y-2193600D01*
X4540299Y-2189499D01*
X4542399Y-2187500D01*
X4546499Y-2185500D01*
X4554600Y-2185500D01*
X4558699Y-2187500D01*
X4560799Y-2189499D01*
X4562799Y-2193600D01*
X4562799Y-2197700D01*
X4560799Y-2201799D01*
X4556700Y-2208000D01*
X4536199Y-2228400D01*
X4564899Y-2228400D01*
X4506400Y-2085500D02*
G01*
X4490000Y-2128400D01*
X4506400Y-2085500D02*
G01*
X4522700Y-2128400D01*
X4496099Y-2114099D02*
G01*
X4516599Y-2114099D01*
X4540299Y-2085500D02*
G01*
X4562799Y-2085500D01*
X4550500Y-2101799D01*
X4556700Y-2101799D01*
X4560799Y-2103899D01*
X4562799Y-2105900D01*
X4564899Y-2111999D01*
X4564899Y-2116100D01*
X4562799Y-2122300D01*
X4558699Y-2126399D01*
X4552600Y-2128400D01*
X4546499Y-2128400D01*
X4540299Y-2126399D01*
X4538299Y-2124299D01*
X4536199Y-2120200D01*
X4506400Y-1985500D02*
G01*
X4490000Y-2028400D01*
X4506400Y-1985500D02*
G01*
X4522700Y-2028400D01*
X4496099Y-2014099D02*
G01*
X4516599Y-2014099D01*
X4556700Y-1985500D02*
G01*
X4536199Y-2014099D01*
X4566899Y-2014099D01*
X4556700Y-1985500D02*
G01*
X4556700Y-2028400D01*
X4506400Y-1895500D02*
G01*
X4490000Y-1938400D01*
X4506400Y-1895500D02*
G01*
X4522700Y-1938400D01*
X4496099Y-1924099D02*
G01*
X4516599Y-1924099D01*
X4560799Y-1895500D02*
G01*
X4540299Y-1895500D01*
X4538299Y-1913899D01*
X4540299Y-1911799D01*
X4546499Y-1909800D01*
X4552600Y-1909800D01*
X4558699Y-1911799D01*
X4562799Y-1915900D01*
X4564899Y-1921999D01*
X4564899Y-1926100D01*
X4562799Y-1932300D01*
X4558699Y-1936399D01*
X4552600Y-1938400D01*
X4546499Y-1938400D01*
X4540299Y-1936399D01*
X4538299Y-1934299D01*
X4536199Y-1930199D01*
X4506400Y-1795500D02*
G01*
X4490000Y-1838400D01*
X4506400Y-1795500D02*
G01*
X4522700Y-1838400D01*
X4496099Y-1824099D02*
G01*
X4516599Y-1824099D01*
X4560799Y-1801599D02*
G01*
X4558699Y-1797500D01*
X4552600Y-1795500D01*
X4548500Y-1795500D01*
X4542399Y-1797500D01*
X4538299Y-1803600D01*
X4536199Y-1813899D01*
X4536199Y-1824099D01*
X4538299Y-1832300D01*
X4542399Y-1836399D01*
X4548500Y-1838400D01*
X4550500Y-1838400D01*
X4556700Y-1836399D01*
X4560799Y-1832300D01*
X4562799Y-1826100D01*
X4562799Y-1824099D01*
X4560799Y-1818000D01*
X4556700Y-1813899D01*
X4550500Y-1811799D01*
X4548500Y-1811799D01*
X4542399Y-1813899D01*
X4538299Y-1818000D01*
X4536199Y-1824099D01*
X4506400Y-1695500D02*
G01*
X4490000Y-1738400D01*
X4506400Y-1695500D02*
G01*
X4522700Y-1738400D01*
X4496099Y-1724099D02*
G01*
X4516599Y-1724099D01*
X4564899Y-1695500D02*
G01*
X4544399Y-1738400D01*
X4536199Y-1695500D02*
G01*
X4564899Y-1695500D01*
X4506400Y-1595500D02*
G01*
X4490000Y-1638400D01*
X4506400Y-1595500D02*
G01*
X4522700Y-1638400D01*
X4496099Y-1624099D02*
G01*
X4516599Y-1624099D01*
X4546499Y-1595500D02*
G01*
X4540299Y-1597500D01*
X4538299Y-1601599D01*
X4538299Y-1605700D01*
X4540299Y-1609800D01*
X4544399Y-1611799D01*
X4552600Y-1613899D01*
X4558699Y-1615900D01*
X4562799Y-1620000D01*
X4564899Y-1624099D01*
X4564899Y-1630199D01*
X4562799Y-1634299D01*
X4560799Y-1636399D01*
X4554600Y-1638400D01*
X4546499Y-1638400D01*
X4540299Y-1636399D01*
X4538299Y-1634299D01*
X4536199Y-1630199D01*
X4536199Y-1624099D01*
X4538299Y-1620000D01*
X4542399Y-1615900D01*
X4548500Y-1613899D01*
X4556700Y-1611799D01*
X4560799Y-1609800D01*
X4562799Y-1605700D01*
X4562799Y-1601599D01*
X4560799Y-1597500D01*
X4554600Y-1595500D01*
X4546499Y-1595500D01*
X4506400Y-1485500D02*
G01*
X4490000Y-1528400D01*
X4506400Y-1485500D02*
G01*
X4522700Y-1528400D01*
X4496099Y-1514099D02*
G01*
X4516599Y-1514099D01*
X4562799Y-1499800D02*
G01*
X4560799Y-1505900D01*
X4556700Y-1510000D01*
X4550500Y-1511999D01*
X4548500Y-1511999D01*
X4542399Y-1510000D01*
X4538299Y-1505900D01*
X4536199Y-1499800D01*
X4536199Y-1497699D01*
X4538299Y-1491599D01*
X4542399Y-1487500D01*
X4548500Y-1485500D01*
X4550500Y-1485500D01*
X4556700Y-1487500D01*
X4560799Y-1491599D01*
X4562799Y-1499800D01*
X4562799Y-1510000D01*
X4560799Y-1520199D01*
X4556700Y-1526399D01*
X4550500Y-1528400D01*
X4546499Y-1528400D01*
X4540299Y-1526399D01*
X4538299Y-1522300D01*
X4486400Y-1385500D02*
G01*
X4470000Y-1428400D01*
X4486400Y-1385500D02*
G01*
X4502700Y-1428400D01*
X4476099Y-1414099D02*
G01*
X4496599Y-1414099D01*
X4516199Y-1393600D02*
G01*
X4520299Y-1391599D01*
X4526499Y-1385500D01*
X4526499Y-1428400D01*
X4552200Y-1385500D02*
G01*
X4546099Y-1387500D01*
X4541999Y-1393600D01*
X4540000Y-1403899D01*
X4540000Y-1410000D01*
X4541999Y-1420199D01*
X4546099Y-1426399D01*
X4552200Y-1428400D01*
X4556300Y-1428400D01*
X4562500Y-1426399D01*
X4566499Y-1420199D01*
X4568599Y-1410000D01*
X4568599Y-1403899D01*
X4566499Y-1393600D01*
X4562500Y-1387500D01*
X4556300Y-1385500D01*
X4552200Y-1385500D01*
X4496400Y-1295500D02*
G01*
X4480000Y-1338400D01*
X4496400Y-1295500D02*
G01*
X4512700Y-1338400D01*
X4486099Y-1324099D02*
G01*
X4506599Y-1324099D01*
X4526199Y-1303600D02*
G01*
X4530299Y-1301599D01*
X4536499Y-1295500D01*
X4536499Y-1338400D01*
X4550000Y-1303600D02*
G01*
X4553999Y-1301599D01*
X4560200Y-1295500D01*
X4560200Y-1338400D01*
X4486400Y-1195500D02*
G01*
X4470000Y-1238400D01*
X4486400Y-1195500D02*
G01*
X4502700Y-1238400D01*
X4476099Y-1224099D02*
G01*
X4496599Y-1224099D01*
X4516199Y-1203600D02*
G01*
X4520299Y-1201599D01*
X4526499Y-1195500D01*
X4526499Y-1238400D01*
X4541999Y-1205700D02*
G01*
X4541999Y-1203600D01*
X4543999Y-1199499D01*
X4546099Y-1197500D01*
X4550200Y-1195500D01*
X4558400Y-1195500D01*
X4562500Y-1197500D01*
X4564499Y-1199499D01*
X4566499Y-1203600D01*
X4566499Y-1207699D01*
X4564499Y-1211799D01*
X4560400Y-1218000D01*
X4540000Y-1238400D01*
X4568599Y-1238400D01*
X4486400Y-1095500D02*
G01*
X4470000Y-1138400D01*
X4486400Y-1095500D02*
G01*
X4502700Y-1138400D01*
X4476099Y-1124099D02*
G01*
X4496599Y-1124099D01*
X4516199Y-1103600D02*
G01*
X4520299Y-1101599D01*
X4526499Y-1095500D01*
X4526499Y-1138400D01*
X4543999Y-1095500D02*
G01*
X4566499Y-1095500D01*
X4554300Y-1111799D01*
X4560400Y-1111799D01*
X4564499Y-1113899D01*
X4566499Y-1115900D01*
X4568599Y-1121999D01*
X4568599Y-1126100D01*
X4566499Y-1132300D01*
X4562500Y-1136399D01*
X4556300Y-1138400D01*
X4550200Y-1138400D01*
X4543999Y-1136399D01*
X4541999Y-1134299D01*
X4540000Y-1130199D01*
X4486400Y-995500D02*
G01*
X4470000Y-1038400D01*
X4486400Y-995500D02*
G01*
X4502700Y-1038400D01*
X4476099Y-1024099D02*
G01*
X4496599Y-1024099D01*
X4516199Y-1003600D02*
G01*
X4520299Y-1001599D01*
X4526499Y-995500D01*
X4526499Y-1038400D01*
X4560400Y-995500D02*
G01*
X4540000Y-1024099D01*
X4570600Y-1024099D01*
X4560400Y-995500D02*
G01*
X4560400Y-1038400D01*
X860700Y-2804800D02*
G01*
X858600Y-2800700D01*
X854499Y-2796599D01*
X850500Y-2794600D01*
X842300Y-2794600D01*
X838200Y-2796599D01*
X834099Y-2800700D01*
X831999Y-2804800D01*
X830000Y-2810999D01*
X830000Y-2821199D01*
X831999Y-2827300D01*
X834099Y-2831399D01*
X838200Y-2835500D01*
X842300Y-2837500D01*
X850500Y-2837500D01*
X854499Y-2835500D01*
X858600Y-2831399D01*
X860700Y-2827300D01*
X898699Y-2808899D02*
G01*
X898699Y-2837500D01*
X898699Y-2815000D02*
G01*
X894600Y-2810999D01*
X890500Y-2808899D01*
X884400Y-2808899D01*
X880300Y-2810999D01*
X876199Y-2815000D01*
X874200Y-2821199D01*
X874200Y-2825300D01*
X876199Y-2831399D01*
X880300Y-2835500D01*
X884400Y-2837500D01*
X890500Y-2837500D01*
X894600Y-2835500D01*
X898699Y-2831399D01*
X912199Y-2808899D02*
G01*
X912199Y-2837500D01*
X912199Y-2821199D02*
G01*
X914299Y-2815000D01*
X918400Y-2810999D01*
X922500Y-2808899D01*
X928600Y-2808899D01*
X948200Y-2794600D02*
G01*
X948200Y-2829400D01*
X950300Y-2835500D01*
X954400Y-2837500D01*
X958499Y-2837500D01*
X942100Y-2808899D02*
G01*
X956399Y-2808899D01*
X971999Y-2794600D02*
G01*
X971999Y-2837500D01*
X971999Y-2817100D02*
G01*
X978100Y-2810999D01*
X982200Y-2808899D01*
X988299Y-2808899D01*
X992399Y-2810999D01*
X994499Y-2817100D01*
X994499Y-2837500D01*
X1008000Y-2821199D02*
G01*
X1032500Y-2821199D01*
X1032500Y-2817100D01*
X1030500Y-2813000D01*
X1028400Y-2810999D01*
X1024300Y-2808899D01*
X1018199Y-2808899D01*
X1014099Y-2810999D01*
X1010000Y-2815000D01*
X1008000Y-2821199D01*
X1008000Y-2825300D01*
X1010000Y-2831399D01*
X1014099Y-2835500D01*
X1018199Y-2837500D01*
X1024300Y-2837500D01*
X1028400Y-2835500D01*
X1032500Y-2831399D01*
X1046000Y-2808899D02*
G01*
X1046000Y-2829400D01*
X1048000Y-2835500D01*
X1052100Y-2837500D01*
X1058299Y-2837500D01*
X1062399Y-2835500D01*
X1068500Y-2829400D01*
X1068500Y-2808899D02*
G01*
X1068500Y-2837500D01*
X1081999Y-2808899D02*
G01*
X1081999Y-2837500D01*
X1081999Y-2821199D02*
G01*
X1083999Y-2815000D01*
X1088100Y-2810999D01*
X1092200Y-2808899D01*
X1098400Y-2808899D01*
X1143400Y-2794600D02*
G01*
X1143400Y-2837500D01*
X1143400Y-2794600D02*
G01*
X1161800Y-2794600D01*
X1167899Y-2796599D01*
X1170000Y-2798699D01*
X1171999Y-2802800D01*
X1171999Y-2806900D01*
X1170000Y-2810999D01*
X1167899Y-2813000D01*
X1161800Y-2815000D01*
X1143400Y-2815000D01*
X1157700Y-2815000D02*
G01*
X1171999Y-2837500D01*
X1185500Y-2821199D02*
G01*
X1210000Y-2821199D01*
X1210000Y-2817100D01*
X1208000Y-2813000D01*
X1206000Y-2810999D01*
X1201899Y-2808899D01*
X1195699Y-2808899D01*
X1191599Y-2810999D01*
X1187500Y-2815000D01*
X1185500Y-2821199D01*
X1185500Y-2825300D01*
X1187500Y-2831399D01*
X1191599Y-2835500D01*
X1195699Y-2837500D01*
X1201899Y-2837500D01*
X1206000Y-2835500D01*
X1210000Y-2831399D01*
X1246000Y-2815000D02*
G01*
X1243999Y-2810999D01*
X1237899Y-2808899D01*
X1231700Y-2808899D01*
X1225600Y-2810999D01*
X1223500Y-2815000D01*
X1225600Y-2819099D01*
X1229700Y-2821199D01*
X1239899Y-2823200D01*
X1243999Y-2825300D01*
X1246000Y-2829400D01*
X1246000Y-2831399D01*
X1243999Y-2835500D01*
X1237899Y-2837500D01*
X1231700Y-2837500D01*
X1225600Y-2835500D01*
X1223500Y-2831399D01*
X1259499Y-2821199D02*
G01*
X1284099Y-2821199D01*
X1284099Y-2817100D01*
X1281999Y-2813000D01*
X1280000Y-2810999D01*
X1275900Y-2808899D01*
X1269799Y-2808899D01*
X1265699Y-2810999D01*
X1261599Y-2815000D01*
X1259499Y-2821199D01*
X1259499Y-2825300D01*
X1261599Y-2831399D01*
X1265699Y-2835500D01*
X1269799Y-2837500D01*
X1275900Y-2837500D01*
X1280000Y-2835500D01*
X1284099Y-2831399D01*
X1322100Y-2808899D02*
G01*
X1322100Y-2837500D01*
X1322100Y-2815000D02*
G01*
X1318000Y-2810999D01*
X1313999Y-2808899D01*
X1307799Y-2808899D01*
X1303699Y-2810999D01*
X1299600Y-2815000D01*
X1297600Y-2821199D01*
X1297600Y-2825300D01*
X1299600Y-2831399D01*
X1303699Y-2835500D01*
X1307799Y-2837500D01*
X1313999Y-2837500D01*
X1318000Y-2835500D01*
X1322100Y-2831399D01*
X1335600Y-2808899D02*
G01*
X1335600Y-2837500D01*
X1335600Y-2821199D02*
G01*
X1337700Y-2815000D01*
X1341800Y-2810999D01*
X1345900Y-2808899D01*
X1351999Y-2808899D01*
X1390000Y-2815000D02*
G01*
X1386000Y-2810999D01*
X1381899Y-2808899D01*
X1375699Y-2808899D01*
X1371599Y-2810999D01*
X1367500Y-2815000D01*
X1365500Y-2821199D01*
X1365500Y-2825300D01*
X1367500Y-2831399D01*
X1371599Y-2835500D01*
X1375699Y-2837500D01*
X1381899Y-2837500D01*
X1386000Y-2835500D01*
X1390000Y-2831399D01*
X1403500Y-2794600D02*
G01*
X1403500Y-2837500D01*
X1403500Y-2817100D02*
G01*
X1409700Y-2810999D01*
X1413800Y-2808899D01*
X1419899Y-2808899D01*
X1423999Y-2810999D01*
X1426000Y-2817100D01*
X1426000Y-2837500D01*
X854499Y-2885700D02*
G01*
X852500Y-2881599D01*
X846399Y-2879600D01*
X842300Y-2879600D01*
X836100Y-2881599D01*
X831999Y-2887800D01*
X830000Y-2898000D01*
X830000Y-2908200D01*
X831999Y-2916399D01*
X836100Y-2920500D01*
X842300Y-2922500D01*
X844299Y-2922500D01*
X850500Y-2920500D01*
X854499Y-2916399D01*
X856599Y-2910300D01*
X856599Y-2908200D01*
X854499Y-2902100D01*
X850500Y-2898000D01*
X844299Y-2895999D01*
X842300Y-2895999D01*
X836100Y-2898000D01*
X831999Y-2902100D01*
X830000Y-2908200D01*
X870100Y-2893899D02*
G01*
X892600Y-2922500D01*
X892600Y-2893899D02*
G01*
X870100Y-2922500D01*
X918400Y-2879600D02*
G01*
X912199Y-2881599D01*
X908099Y-2887800D01*
X906100Y-2898000D01*
X906100Y-2904099D01*
X908099Y-2914400D01*
X912199Y-2920500D01*
X918400Y-2922500D01*
X922500Y-2922500D01*
X928600Y-2920500D01*
X932699Y-2914400D01*
X934699Y-2904099D01*
X934699Y-2898000D01*
X932699Y-2887800D01*
X928600Y-2881599D01*
X922500Y-2879600D01*
X918400Y-2879600D01*
X974799Y-2893899D02*
G01*
X972799Y-2900000D01*
X968699Y-2904099D01*
X962500Y-2906199D01*
X960500Y-2906199D01*
X954400Y-2904099D01*
X950300Y-2900000D01*
X948200Y-2893899D01*
X948200Y-2891900D01*
X950300Y-2885700D01*
X954400Y-2881599D01*
X960500Y-2879600D01*
X962500Y-2879600D01*
X968699Y-2881599D01*
X972799Y-2885700D01*
X974799Y-2893899D01*
X974799Y-2904099D01*
X972799Y-2914400D01*
X968699Y-2920500D01*
X962500Y-2922500D01*
X958499Y-2922500D01*
X952300Y-2920500D01*
X950300Y-2916399D01*
X1016999Y-2885700D02*
G01*
X1012899Y-2881599D01*
X1006700Y-2879600D01*
X998500Y-2879600D01*
X992399Y-2881599D01*
X988299Y-2885700D01*
X988299Y-2889800D01*
X990399Y-2893899D01*
X992399Y-2895999D01*
X996499Y-2898000D01*
X1008800Y-2902100D01*
X1012899Y-2904099D01*
X1014899Y-2906199D01*
X1016999Y-2910300D01*
X1016999Y-2916399D01*
X1012899Y-2920500D01*
X1006700Y-2922500D01*
X998500Y-2922500D01*
X992399Y-2920500D01*
X988299Y-2916399D01*
X1030500Y-2879600D02*
G01*
X1030500Y-2922500D01*
X1030500Y-2879600D02*
G01*
X1048900Y-2879600D01*
X1055000Y-2881599D01*
X1056999Y-2883699D01*
X1059099Y-2887800D01*
X1059099Y-2891900D01*
X1056999Y-2895999D01*
X1055000Y-2898000D01*
X1048900Y-2900000D01*
X1030500Y-2900000D02*
G01*
X1048900Y-2900000D01*
X1055000Y-2902100D01*
X1056999Y-2904099D01*
X1059099Y-2908200D01*
X1059099Y-2914400D01*
X1056999Y-2918499D01*
X1055000Y-2920500D01*
X1048900Y-2922500D01*
X1030500Y-2922500D01*
X1103299Y-2889800D02*
G01*
X1101199Y-2885700D01*
X1097100Y-2881599D01*
X1093000Y-2879600D01*
X1084899Y-2879600D01*
X1080799Y-2881599D01*
X1076700Y-2885700D01*
X1074600Y-2889800D01*
X1072600Y-2895999D01*
X1072600Y-2906199D01*
X1074600Y-2912300D01*
X1076700Y-2916399D01*
X1080799Y-2920500D01*
X1084899Y-2922500D01*
X1093000Y-2922500D01*
X1097100Y-2920500D01*
X1101199Y-2916399D01*
X1103299Y-2912300D01*
X1148299Y-2904099D02*
G01*
X1185100Y-2904099D01*
X1230100Y-2879600D02*
G01*
X1230100Y-2922500D01*
X1230100Y-2879600D02*
G01*
X1248500Y-2879600D01*
X1254600Y-2881599D01*
X1256700Y-2883699D01*
X1258699Y-2887800D01*
X1258699Y-2891900D01*
X1256700Y-2895999D01*
X1254600Y-2898000D01*
X1248500Y-2900000D01*
X1230100Y-2900000D01*
X1244399Y-2900000D02*
G01*
X1258699Y-2922500D01*
X1272200Y-2906199D02*
G01*
X1296800Y-2906199D01*
X1296800Y-2902100D01*
X1294700Y-2898000D01*
X1292700Y-2895999D01*
X1288599Y-2893899D01*
X1282500Y-2893899D01*
X1278400Y-2895999D01*
X1274300Y-2900000D01*
X1272200Y-2906199D01*
X1272200Y-2910300D01*
X1274300Y-2916399D01*
X1278400Y-2920500D01*
X1282500Y-2922500D01*
X1288599Y-2922500D01*
X1292700Y-2920500D01*
X1296800Y-2916399D01*
X1310299Y-2893899D02*
G01*
X1322500Y-2922500D01*
X1334799Y-2893899D02*
G01*
X1322500Y-2922500D01*
X1350399Y-2912300D02*
G01*
X1348299Y-2914400D01*
X1350399Y-2916399D01*
X1352399Y-2914400D01*
X1350399Y-2912300D01*
X1365900Y-2887800D02*
G01*
X1370000Y-2885700D01*
X1376099Y-2879600D01*
X1376099Y-2922500D01*
X1391700Y-2912300D02*
G01*
X1389600Y-2914400D01*
X1391700Y-2916399D01*
X1393699Y-2914400D01*
X1391700Y-2912300D01*
X1407200Y-2887800D02*
G01*
X1411300Y-2885700D01*
X1417500Y-2879600D01*
X1417500Y-2922500D01*
X1634499Y-741599D02*
G01*
X1632500Y-737500D01*
X1626400Y-735500D01*
X1622299Y-735500D01*
X1616099Y-737500D01*
X1611999Y-743600D01*
X1610000Y-753899D01*
X1610000Y-764099D01*
X1611999Y-772300D01*
X1616099Y-776399D01*
X1622299Y-778400D01*
X1624300Y-778400D01*
X1630500Y-776399D01*
X1634499Y-772300D01*
X1636599Y-766100D01*
X1636599Y-764099D01*
X1634499Y-758000D01*
X1630500Y-753899D01*
X1624300Y-751799D01*
X1622299Y-751799D01*
X1616099Y-753899D01*
X1611999Y-758000D01*
X1610000Y-764099D01*
X1652100Y-745700D02*
G01*
X1652100Y-743600D01*
X1654200Y-739499D01*
X1656199Y-737500D01*
X1660299Y-735500D01*
X1668500Y-735500D01*
X1672600Y-737500D01*
X1674600Y-739499D01*
X1676700Y-743600D01*
X1676700Y-747699D01*
X1674600Y-751799D01*
X1670500Y-758000D01*
X1650100Y-778400D01*
X1678699Y-778400D01*
X1694300Y-745700D02*
G01*
X1694300Y-743600D01*
X1696300Y-739499D01*
X1698400Y-737500D01*
X1702500Y-735500D01*
X1710600Y-735500D01*
X1714700Y-737500D01*
X1716800Y-739499D01*
X1718800Y-743600D01*
X1718800Y-747699D01*
X1716800Y-751799D01*
X1712700Y-758000D01*
X1692200Y-778400D01*
X1720900Y-778400D01*
X1758900Y-735500D02*
G01*
X1738500Y-735500D01*
X1736400Y-753899D01*
X1738500Y-751799D01*
X1744600Y-749800D01*
X1750699Y-749800D01*
X1756899Y-751799D01*
X1761000Y-755900D01*
X1763000Y-761999D01*
X1763000Y-766100D01*
X1761000Y-772300D01*
X1756899Y-776399D01*
X1750699Y-778400D01*
X1744600Y-778400D01*
X1738500Y-776399D01*
X1736400Y-774299D01*
X1734399Y-770199D01*
X1801000Y-741599D02*
G01*
X1798999Y-737500D01*
X1792899Y-735500D01*
X1788800Y-735500D01*
X1782600Y-737500D01*
X1778500Y-743600D01*
X1776499Y-753899D01*
X1776499Y-764099D01*
X1778500Y-772300D01*
X1782600Y-776399D01*
X1788800Y-778400D01*
X1790799Y-778400D01*
X1796999Y-776399D01*
X1801000Y-772300D01*
X1803100Y-766100D01*
X1803100Y-764099D01*
X1801000Y-758000D01*
X1796999Y-753899D01*
X1790799Y-751799D01*
X1788800Y-751799D01*
X1782600Y-753899D01*
X1778500Y-758000D01*
X1776499Y-764099D01*
X3401999Y-735700D02*
G01*
X3401999Y-733600D01*
X3404099Y-729499D01*
X3406099Y-727500D01*
X3410200Y-725500D01*
X3418400Y-725500D01*
X3422500Y-727500D01*
X3424499Y-729499D01*
X3426599Y-733600D01*
X3426599Y-737699D01*
X3424499Y-741799D01*
X3420500Y-748000D01*
X3400000Y-768400D01*
X3428599Y-768400D01*
X3470799Y-725500D02*
G01*
X3450299Y-768400D01*
X3442100Y-725500D02*
G01*
X3470799Y-725500D01*
X3515000Y-735700D02*
G01*
X3512899Y-731599D01*
X3508800Y-727500D01*
X3504700Y-725500D01*
X3496499Y-725500D01*
X3492500Y-727500D01*
X3488400Y-731599D01*
X3486300Y-735700D01*
X3484300Y-741799D01*
X3484300Y-751999D01*
X3486300Y-758200D01*
X3488400Y-762300D01*
X3492500Y-766399D01*
X3496499Y-768400D01*
X3504700Y-768400D01*
X3508800Y-766399D01*
X3512899Y-762300D01*
X3515000Y-758200D01*
X3528500Y-733600D02*
G01*
X3532500Y-731599D01*
X3538699Y-725500D01*
X3538699Y-768400D01*
X3554200Y-735700D02*
G01*
X3554200Y-733600D01*
X3556300Y-729499D01*
X3558299Y-727500D01*
X3562399Y-725500D01*
X3570600Y-725500D01*
X3574700Y-727500D01*
X3576700Y-729499D01*
X3578800Y-733600D01*
X3578800Y-737699D01*
X3576700Y-741799D01*
X3572600Y-748000D01*
X3552200Y-768400D01*
X3580799Y-768400D01*
X3604499Y-725500D02*
G01*
X3598400Y-727500D01*
X3596400Y-731599D01*
X3596400Y-735700D01*
X3598400Y-739800D01*
X3602500Y-741799D01*
X3610699Y-743899D01*
X3616800Y-745900D01*
X3620900Y-750000D01*
X3623000Y-754099D01*
X3623000Y-760199D01*
X3620900Y-764299D01*
X3618900Y-766399D01*
X3612700Y-768400D01*
X3604499Y-768400D01*
X3598400Y-766399D01*
X3596400Y-764299D01*
X3594300Y-760199D01*
X3594300Y-754099D01*
X3596400Y-750000D01*
X3600500Y-745900D01*
X3606599Y-743899D01*
X3614799Y-741799D01*
X3618900Y-739800D01*
X3620900Y-735700D01*
X3620900Y-731599D01*
X3618900Y-727500D01*
X3612700Y-725500D01*
X3604499Y-725500D01*
X2794499Y-1660700D02*
G01*
X2792500Y-1656599D01*
X2786400Y-1654600D01*
X2782299Y-1654600D01*
X2776099Y-1656599D01*
X2771999Y-1662800D01*
X2770000Y-1673000D01*
X2770000Y-1683200D01*
X2771999Y-1691399D01*
X2776099Y-1695500D01*
X2782299Y-1697500D01*
X2784300Y-1697500D01*
X2790500Y-1695500D01*
X2794499Y-1691399D01*
X2796599Y-1685300D01*
X2796599Y-1683200D01*
X2794499Y-1677100D01*
X2790500Y-1673000D01*
X2784300Y-1670999D01*
X2782299Y-1670999D01*
X2776099Y-1673000D01*
X2771999Y-1677100D01*
X2770000Y-1683200D01*
X2810100Y-1668899D02*
G01*
X2832600Y-1697500D01*
X2832600Y-1668899D02*
G01*
X2810100Y-1697500D01*
X2876800Y-1664800D02*
G01*
X2874700Y-1660700D01*
X2870600Y-1656599D01*
X2866499Y-1654600D01*
X2858400Y-1654600D01*
X2854300Y-1656599D01*
X2850200Y-1660700D01*
X2848100Y-1664800D01*
X2846099Y-1670999D01*
X2846099Y-1681199D01*
X2848100Y-1687300D01*
X2850200Y-1691399D01*
X2854300Y-1695500D01*
X2858400Y-1697500D01*
X2866499Y-1697500D01*
X2870600Y-1695500D01*
X2874700Y-1691399D01*
X2876800Y-1687300D01*
X2902500Y-1654600D02*
G01*
X2896400Y-1656599D01*
X2892299Y-1662800D01*
X2890299Y-1673000D01*
X2890299Y-1679099D01*
X2892299Y-1689400D01*
X2896400Y-1695500D01*
X2902500Y-1697500D01*
X2906599Y-1697500D01*
X2912799Y-1695500D01*
X2916899Y-1689400D01*
X2918900Y-1679099D01*
X2918900Y-1673000D01*
X2916899Y-1662800D01*
X2912799Y-1656599D01*
X2906599Y-1654600D01*
X2902500Y-1654600D01*
X2958999Y-1668899D02*
G01*
X2956999Y-1675000D01*
X2952899Y-1679099D01*
X2946700Y-1681199D01*
X2944700Y-1681199D01*
X2938500Y-1679099D01*
X2934499Y-1675000D01*
X2932399Y-1668899D01*
X2932399Y-1666900D01*
X2934499Y-1660700D01*
X2938500Y-1656599D01*
X2944700Y-1654600D01*
X2946700Y-1654600D01*
X2952899Y-1656599D01*
X2956999Y-1660700D01*
X2958999Y-1668899D01*
X2958999Y-1679099D01*
X2956999Y-1689400D01*
X2952899Y-1695500D01*
X2946700Y-1697500D01*
X2942600Y-1697500D01*
X2936499Y-1695500D01*
X2934499Y-1691399D01*
X2134499Y-2581599D02*
G01*
X2132500Y-2577500D01*
X2126400Y-2575500D01*
X2122299Y-2575500D01*
X2116099Y-2577500D01*
X2111999Y-2583600D01*
X2110000Y-2593899D01*
X2110000Y-2604099D01*
X2111999Y-2612300D01*
X2116099Y-2616399D01*
X2122299Y-2618400D01*
X2124300Y-2618400D01*
X2130500Y-2616399D01*
X2134499Y-2612300D01*
X2136599Y-2606100D01*
X2136599Y-2604099D01*
X2134499Y-2598000D01*
X2130500Y-2593899D01*
X2124300Y-2591799D01*
X2122299Y-2591799D01*
X2116099Y-2593899D01*
X2111999Y-2598000D01*
X2110000Y-2604099D01*
X2160299Y-2575500D02*
G01*
X2154200Y-2577500D01*
X2152100Y-2581599D01*
X2152100Y-2585700D01*
X2154200Y-2589800D01*
X2158299Y-2591799D01*
X2166499Y-2593899D01*
X2172600Y-2595900D01*
X2176700Y-2600000D01*
X2178699Y-2604099D01*
X2178699Y-2610200D01*
X2176700Y-2614299D01*
X2174600Y-2616399D01*
X2168500Y-2618400D01*
X2160299Y-2618400D01*
X2154200Y-2616399D01*
X2152100Y-2614299D01*
X2150100Y-2610200D01*
X2150100Y-2604099D01*
X2152100Y-2600000D01*
X2156199Y-2595900D01*
X2162399Y-2593899D01*
X2170500Y-2591799D01*
X2174600Y-2589800D01*
X2176700Y-2585700D01*
X2176700Y-2581599D01*
X2174600Y-2577500D01*
X2168500Y-2575500D01*
X2160299Y-2575500D01*
X2192200Y-2575500D02*
G01*
X2192200Y-2618400D01*
X2192200Y-2575500D02*
G01*
X2210600Y-2575500D01*
X2216800Y-2577500D01*
X2218800Y-2579499D01*
X2220900Y-2583600D01*
X2220900Y-2587700D01*
X2218800Y-2591799D01*
X2216800Y-2593899D01*
X2210600Y-2595900D01*
X2192200Y-2595900D02*
G01*
X2210600Y-2595900D01*
X2216800Y-2598000D01*
X2218800Y-2600000D01*
X2220900Y-2604099D01*
X2220900Y-2610200D01*
X2218800Y-2614299D01*
X2216800Y-2616399D01*
X2210600Y-2618400D01*
X2192200Y-2618400D01*
X2258900Y-2575500D02*
G01*
X2238500Y-2575500D01*
X2236400Y-2593899D01*
X2238500Y-2591799D01*
X2244600Y-2589800D01*
X2250699Y-2589800D01*
X2256899Y-2591799D01*
X2261000Y-2595900D01*
X2263000Y-2601999D01*
X2263000Y-2606100D01*
X2261000Y-2612300D01*
X2256899Y-2616399D01*
X2250699Y-2618400D01*
X2244600Y-2618400D01*
X2238500Y-2616399D01*
X2236400Y-2614299D01*
X2234399Y-2610200D01*
X2288800Y-2575500D02*
G01*
X2282600Y-2577500D01*
X2278500Y-2583600D01*
X2276499Y-2593899D01*
X2276499Y-2600000D01*
X2278500Y-2610200D01*
X2282600Y-2616399D01*
X2288800Y-2618400D01*
X2292899Y-2618400D01*
X2298999Y-2616399D01*
X2303100Y-2610200D01*
X2305100Y-2600000D01*
X2305100Y-2593899D01*
X2303100Y-2583600D01*
X2298999Y-2577500D01*
X2292899Y-2575500D01*
X2288800Y-2575500D01*
X555500Y-2310000D02*
G01*
X598400Y-2310000D01*
X555500Y-2310000D02*
G01*
X555500Y-2283400D01*
X575900Y-2310000D02*
G01*
X575900Y-2293600D01*
X555500Y-2255599D02*
G01*
X598400Y-2255599D01*
X555500Y-2269899D02*
G01*
X555500Y-2241300D01*
X555500Y-2227800D02*
G01*
X598400Y-2227800D01*
X555500Y-2227800D02*
G01*
X555500Y-2213499D01*
X557500Y-2207300D01*
X561599Y-2203200D01*
X565700Y-2201199D01*
X571799Y-2199099D01*
X581999Y-2199099D01*
X588200Y-2201199D01*
X592300Y-2203200D01*
X596399Y-2207300D01*
X598400Y-2213499D01*
X598400Y-2227800D01*
X555500Y-2185599D02*
G01*
X598400Y-2185599D01*
X545500Y-1720000D02*
G01*
X576100Y-1720000D01*
X582300Y-1718000D01*
X586399Y-1713899D01*
X588400Y-1707699D01*
X588400Y-1703600D01*
X586399Y-1697500D01*
X582300Y-1693400D01*
X576100Y-1691399D01*
X545500Y-1691399D01*
X551599Y-1649200D02*
G01*
X547500Y-1653299D01*
X545500Y-1659499D01*
X545500Y-1667600D01*
X547500Y-1673800D01*
X551599Y-1677899D01*
X555700Y-1677899D01*
X559800Y-1675799D01*
X561799Y-1673800D01*
X563899Y-1669699D01*
X568000Y-1657399D01*
X570000Y-1653299D01*
X571999Y-1651300D01*
X576100Y-1649200D01*
X582300Y-1649200D01*
X586399Y-1653299D01*
X588400Y-1659499D01*
X588400Y-1667600D01*
X586399Y-1673800D01*
X582300Y-1677899D01*
X545500Y-1635700D02*
G01*
X588400Y-1635700D01*
X545500Y-1635700D02*
G01*
X545500Y-1617300D01*
X547500Y-1611199D01*
X549499Y-1609099D01*
X553600Y-1607100D01*
X557699Y-1607100D01*
X561799Y-1609099D01*
X563899Y-1611199D01*
X565900Y-1617300D01*
X565900Y-1635700D02*
G01*
X565900Y-1617300D01*
X568000Y-1611199D01*
X570000Y-1609099D01*
X574099Y-1607100D01*
X580199Y-1607100D01*
X584299Y-1609099D01*
X586399Y-1611199D01*
X588400Y-1617300D01*
X588400Y-1635700D01*
X545500Y-1370000D02*
G01*
X588400Y-1370000D01*
X545500Y-1370000D02*
G01*
X545500Y-1351599D01*
X547500Y-1345500D01*
X549499Y-1343400D01*
X553600Y-1341399D01*
X559800Y-1341399D01*
X563899Y-1343400D01*
X565900Y-1345500D01*
X568000Y-1351599D01*
X568000Y-1370000D01*
X545500Y-1315599D02*
G01*
X547500Y-1319699D01*
X551599Y-1323800D01*
X555700Y-1325799D01*
X561799Y-1327899D01*
X571999Y-1327899D01*
X578200Y-1325799D01*
X582300Y-1323800D01*
X586399Y-1319699D01*
X588400Y-1315599D01*
X588400Y-1307399D01*
X586399Y-1303299D01*
X582300Y-1299200D01*
X578200Y-1297199D01*
X571999Y-1295100D01*
X561799Y-1295100D01*
X555700Y-1297199D01*
X551599Y-1299200D01*
X547500Y-1303299D01*
X545500Y-1307399D01*
X545500Y-1315599D01*
X545500Y-1281599D02*
G01*
X588400Y-1271399D01*
X545500Y-1261199D02*
G01*
X588400Y-1271399D01*
X545500Y-1261199D02*
G01*
X588400Y-1250999D01*
X545500Y-1240700D02*
G01*
X588400Y-1250999D01*
X545500Y-1227199D02*
G01*
X588400Y-1227199D01*
X545500Y-1227199D02*
G01*
X545500Y-1200599D01*
X565900Y-1227199D02*
G01*
X565900Y-1210900D01*
X588400Y-1227199D02*
G01*
X588400Y-1200599D01*
X545500Y-1187100D02*
G01*
X588400Y-1187100D01*
X545500Y-1187100D02*
G01*
X545500Y-1168699D01*
X547500Y-1162600D01*
X549499Y-1160500D01*
X553600Y-1158499D01*
X557699Y-1158499D01*
X561799Y-1160500D01*
X563899Y-1162600D01*
X565900Y-1168699D01*
X565900Y-1187100D01*
X565900Y-1172800D02*
G01*
X588400Y-1158499D01*
X4395500Y-1870000D02*
G01*
X4438400Y-1870000D01*
X4395500Y-1870000D02*
G01*
X4395500Y-1843400D01*
X4415900Y-1870000D02*
G01*
X4415900Y-1853600D01*
X4438400Y-1870000D02*
G01*
X4438400Y-1843400D01*
X4395500Y-1829899D02*
G01*
X4438400Y-1801300D01*
X4395500Y-1801300D02*
G01*
X4438400Y-1829899D01*
X4395500Y-1787800D02*
G01*
X4438400Y-1787800D01*
X4395500Y-1787800D02*
G01*
X4395500Y-1769400D01*
X4397500Y-1763200D01*
X4399499Y-1761199D01*
X4403599Y-1759099D01*
X4409799Y-1759099D01*
X4413900Y-1761199D01*
X4415900Y-1763200D01*
X4418000Y-1769400D01*
X4418000Y-1787800D01*
X4395500Y-1729299D02*
G01*
X4438400Y-1745599D01*
X4395500Y-1729299D02*
G01*
X4438400Y-1712899D01*
X4424099Y-1739499D02*
G01*
X4424099Y-1719000D01*
X4395500Y-1699400D02*
G01*
X4438400Y-1699400D01*
X4395500Y-1699400D02*
G01*
X4438400Y-1670799D01*
X4395500Y-1670799D02*
G01*
X4438400Y-1670799D01*
X4401599Y-1628600D02*
G01*
X4397500Y-1632699D01*
X4395500Y-1638899D01*
X4395500Y-1646999D01*
X4397500Y-1653200D01*
X4401599Y-1657300D01*
X4405699Y-1657300D01*
X4409799Y-1655199D01*
X4411800Y-1653200D01*
X4413900Y-1649099D01*
X4418000Y-1636799D01*
X4420000Y-1632699D01*
X4421999Y-1630700D01*
X4426099Y-1628600D01*
X4432299Y-1628600D01*
X4436400Y-1632699D01*
X4438400Y-1638899D01*
X4438400Y-1646999D01*
X4436400Y-1653200D01*
X4432299Y-1657300D01*
X4395500Y-1615100D02*
G01*
X4438400Y-1615100D01*
X4395500Y-1589400D02*
G01*
X4397500Y-1593499D01*
X4401599Y-1597500D01*
X4405699Y-1599600D01*
X4411800Y-1601599D01*
X4421999Y-1601599D01*
X4428199Y-1599600D01*
X4432299Y-1597500D01*
X4436400Y-1593499D01*
X4438400Y-1589400D01*
X4438400Y-1581199D01*
X4436400Y-1577100D01*
X4432299Y-1573000D01*
X4428199Y-1570999D01*
X4421999Y-1568899D01*
X4411800Y-1568899D01*
X4405699Y-1570999D01*
X4401599Y-1573000D01*
X4397500Y-1577100D01*
X4395500Y-1581199D01*
X4395500Y-1589400D01*
X4395500Y-1555399D02*
G01*
X4438400Y-1555399D01*
X4395500Y-1555399D02*
G01*
X4438400Y-1526799D01*
X4395500Y-1526799D02*
G01*
X4438400Y-1526799D01*
X3488599Y-2725500D02*
G01*
X3468199Y-2768400D01*
X3460000Y-2725500D02*
G01*
X3488599Y-2725500D01*
X3522600Y-2725500D02*
G01*
X3502100Y-2754099D01*
X3532799Y-2754099D01*
X3522600Y-2725500D02*
G01*
X3522600Y-2768400D01*
X3546300Y-2725500D02*
G01*
X3546300Y-2768400D01*
X3546300Y-2768400D02*
G01*
X3570900Y-2768400D01*
X3613000Y-2731599D02*
G01*
X3608900Y-2727500D01*
X3602799Y-2725500D01*
X3594600Y-2725500D01*
X3588500Y-2727500D01*
X3584399Y-2731599D01*
X3584399Y-2735700D01*
X3586400Y-2739800D01*
X3588500Y-2741799D01*
X3592500Y-2743899D01*
X3604799Y-2748000D01*
X3608900Y-2750000D01*
X3611000Y-2751999D01*
X3613000Y-2756100D01*
X3613000Y-2762300D01*
X3608900Y-2766399D01*
X3602799Y-2768400D01*
X3594600Y-2768400D01*
X3588500Y-2766399D01*
X3584399Y-2762300D01*
X3638800Y-2725500D02*
G01*
X3632600Y-2727500D01*
X3628500Y-2733600D01*
X3626499Y-2743899D01*
X3626499Y-2750000D01*
X3628500Y-2760200D01*
X3632600Y-2766399D01*
X3638800Y-2768400D01*
X3642899Y-2768400D01*
X3648999Y-2766399D01*
X3653100Y-2760200D01*
X3655100Y-2750000D01*
X3655100Y-2743899D01*
X3653100Y-2733600D01*
X3648999Y-2727500D01*
X3642899Y-2725500D01*
X3638800Y-2725500D01*
X3680900Y-2725500D02*
G01*
X3674799Y-2727500D01*
X3670699Y-2733600D01*
X3668599Y-2743899D01*
X3668599Y-2750000D01*
X3670699Y-2760200D01*
X3674799Y-2766399D01*
X3680900Y-2768400D01*
X3685000Y-2768400D01*
X3691099Y-2766399D01*
X3695200Y-2760200D01*
X3697299Y-2750000D01*
X3697299Y-2743899D01*
X3695200Y-2733600D01*
X3691099Y-2727500D01*
X3685000Y-2725500D01*
X3680900Y-2725500D01*
X4585500Y-2850000D02*
G01*
X4628400Y-2850000D01*
X4585500Y-2850000D02*
G01*
X4585500Y-2831599D01*
X4587500Y-2825500D01*
X4589499Y-2823400D01*
X4593599Y-2821399D01*
X4597700Y-2821399D01*
X4601800Y-2823400D01*
X4603900Y-2825500D01*
X4605900Y-2831599D01*
X4605900Y-2850000D01*
X4605900Y-2835700D02*
G01*
X4628400Y-2821399D01*
X4585500Y-2807899D02*
G01*
X4628400Y-2807899D01*
X4585500Y-2807899D02*
G01*
X4585500Y-2781300D01*
X4605900Y-2807899D02*
G01*
X4605900Y-2791500D01*
X4628400Y-2807899D02*
G01*
X4628400Y-2781300D01*
X4591599Y-2739099D02*
G01*
X4587500Y-2743200D01*
X4585500Y-2749400D01*
X4585500Y-2757500D01*
X4587500Y-2763699D01*
X4591599Y-2767800D01*
X4595699Y-2767800D01*
X4599799Y-2765700D01*
X4601800Y-2763699D01*
X4603900Y-2759600D01*
X4608000Y-2747300D01*
X4610000Y-2743200D01*
X4611999Y-2741199D01*
X4616099Y-2739099D01*
X4622299Y-2739099D01*
X4626400Y-2743200D01*
X4628400Y-2749400D01*
X4628400Y-2757500D01*
X4626400Y-2763699D01*
X4622299Y-2767800D01*
X4585500Y-2725599D02*
G01*
X4628400Y-2725599D01*
X4585500Y-2725599D02*
G01*
X4585500Y-2699000D01*
X4605900Y-2725599D02*
G01*
X4605900Y-2709299D01*
X4628400Y-2725599D02*
G01*
X4628400Y-2699000D01*
X4585500Y-2671199D02*
G01*
X4628400Y-2671199D01*
X4585500Y-2685500D02*
G01*
X4585500Y-2656900D01*
X3965500Y-1760000D02*
G01*
X3996099Y-1760000D01*
X4002299Y-1758000D01*
X4006400Y-1753899D01*
X4008400Y-1747699D01*
X4008400Y-1743600D01*
X4006400Y-1737500D01*
X4002299Y-1733400D01*
X3996099Y-1731399D01*
X3965500Y-1731399D01*
X3965500Y-1697399D02*
G01*
X3994099Y-1717899D01*
X3994099Y-1687199D01*
X3965500Y-1697399D02*
G01*
X4008400Y-1697399D01*
X2855500Y-2650000D02*
G01*
X2886099Y-2650000D01*
X2892299Y-2648000D01*
X2896400Y-2643899D01*
X2898400Y-2637700D01*
X2898400Y-2633600D01*
X2896400Y-2627500D01*
X2892299Y-2623400D01*
X2886099Y-2621399D01*
X2855500Y-2621399D01*
X2863599Y-2607899D02*
G01*
X2861599Y-2603800D01*
X2855500Y-2597600D01*
X2898400Y-2597600D01*
X4285500Y-790000D02*
G01*
X4316099Y-790000D01*
X4322299Y-788000D01*
X4326400Y-783899D01*
X4328400Y-777699D01*
X4328400Y-773600D01*
X4326400Y-767500D01*
X4322299Y-763400D01*
X4316099Y-761399D01*
X4285500Y-761399D01*
X4295699Y-745799D02*
G01*
X4293599Y-745799D01*
X4289499Y-743800D01*
X4287500Y-741700D01*
X4285500Y-737600D01*
X4285500Y-729499D01*
X4287500Y-725399D01*
X4289499Y-723299D01*
X4293599Y-721300D01*
X4297700Y-721300D01*
X4301800Y-723299D01*
X4308000Y-727399D01*
X4328400Y-747899D01*
X4328400Y-719200D01*
X2485500Y-800000D02*
G01*
X2516099Y-800000D01*
X2522299Y-798000D01*
X2526400Y-793899D01*
X2528400Y-787699D01*
X2528400Y-783600D01*
X2526400Y-777500D01*
X2522299Y-773400D01*
X2516099Y-771399D01*
X2485500Y-771399D01*
X2485500Y-753800D02*
G01*
X2485500Y-731300D01*
X2501800Y-743499D01*
X2501800Y-737399D01*
X2503900Y-733299D01*
X2505900Y-731300D01*
X2511999Y-729200D01*
X2516099Y-729200D01*
X2522299Y-731300D01*
X2526400Y-735399D01*
X2528400Y-741500D01*
X2528400Y-747600D01*
X2526400Y-753800D01*
X2524300Y-755799D01*
X2520200Y-757899D01*
X1305496Y-1740000D02*
G01*
X1348397Y-1711399D01*
X1305496Y-1711399D02*
G01*
X1348397Y-1740000D01*
X1313596Y-1697899D02*
G01*
X1311597Y-1693800D01*
X1305496Y-1687600D01*
X1348397Y-1687600D01*
X1095699Y-1929299D02*
G01*
X1091599Y-1931399D01*
X1087500Y-1935500D01*
X1085500Y-1939499D01*
X1085500Y-1947699D01*
X1087500Y-1951799D01*
X1091599Y-1955900D01*
X1095699Y-1958000D01*
X1101800Y-1960000D01*
X1111999Y-1960000D01*
X1118199Y-1958000D01*
X1122299Y-1955900D01*
X1126400Y-1951799D01*
X1128400Y-1947699D01*
X1128400Y-1939499D01*
X1126400Y-1935500D01*
X1122299Y-1931399D01*
X1118199Y-1929299D01*
X1085500Y-1911700D02*
G01*
X1085500Y-1889200D01*
X1101800Y-1901500D01*
X1101800Y-1895399D01*
X1103900Y-1891300D01*
X1105900Y-1889200D01*
X1111999Y-1887199D01*
X1116099Y-1887199D01*
X1122299Y-1889200D01*
X1126400Y-1893299D01*
X1128400Y-1899499D01*
X1128400Y-1905599D01*
X1126400Y-1911700D01*
X1124300Y-1913800D01*
X1120200Y-1915799D01*
X1095699Y-1489299D02*
G01*
X1091599Y-1491399D01*
X1087500Y-1495500D01*
X1085500Y-1499499D01*
X1085500Y-1507699D01*
X1087500Y-1511799D01*
X1091599Y-1515900D01*
X1095699Y-1518000D01*
X1101800Y-1520000D01*
X1111999Y-1520000D01*
X1118199Y-1518000D01*
X1122299Y-1515900D01*
X1126400Y-1511799D01*
X1128400Y-1507699D01*
X1128400Y-1499499D01*
X1126400Y-1495500D01*
X1122299Y-1491399D01*
X1118199Y-1489299D01*
X1095699Y-1473800D02*
G01*
X1093599Y-1473800D01*
X1089499Y-1471700D01*
X1087500Y-1469699D01*
X1085500Y-1465599D01*
X1085500Y-1457399D01*
X1087500Y-1453299D01*
X1089499Y-1451300D01*
X1093599Y-1449200D01*
X1097700Y-1449200D01*
X1101800Y-1451300D01*
X1108000Y-1455399D01*
X1128400Y-1475799D01*
X1128400Y-1447199D01*
X4201599Y-2801399D02*
G01*
X4197500Y-2805500D01*
X4195500Y-2811599D01*
X4195500Y-2819800D01*
X4197500Y-2825900D01*
X4201599Y-2830000D01*
X4205699Y-2830000D01*
X4209799Y-2828000D01*
X4211800Y-2825900D01*
X4213900Y-2821799D01*
X4218000Y-2809499D01*
X4220000Y-2805500D01*
X4221999Y-2803400D01*
X4226099Y-2801399D01*
X4232299Y-2801399D01*
X4236400Y-2805500D01*
X4238400Y-2811599D01*
X4238400Y-2819800D01*
X4236400Y-2825900D01*
X4232299Y-2830000D01*
X4195500Y-2787899D02*
G01*
X4238400Y-2777600D01*
X4195500Y-2767399D02*
G01*
X4238400Y-2777600D01*
X4195500Y-2767399D02*
G01*
X4238400Y-2757199D01*
X4195500Y-2746999D02*
G01*
X4238400Y-2757199D01*
X4203599Y-2733499D02*
G01*
X4201599Y-2729400D01*
X4195500Y-2723200D01*
X4238400Y-2723200D01*
X675500Y-2650000D02*
G01*
X718400Y-2650000D01*
X675500Y-2650000D02*
G01*
X675500Y-2631599D01*
X677500Y-2625500D01*
X679499Y-2623400D01*
X683600Y-2621399D01*
X689800Y-2621399D01*
X693899Y-2623400D01*
X695900Y-2625500D01*
X698000Y-2631599D01*
X698000Y-2650000D01*
X683600Y-2607899D02*
G01*
X681599Y-2603800D01*
X675500Y-2597600D01*
X718400Y-2597600D01*
X2580201Y-764200D02*
G01*
X2576102Y-766300D01*
X2572002Y-770399D01*
X2570002Y-774400D01*
X2570002Y-782600D01*
X2572002Y-786700D01*
X2576102Y-790799D01*
X2580201Y-792899D01*
X2586301Y-794899D01*
X2596502Y-794899D01*
X2602701Y-792899D01*
X2606801Y-790799D01*
X2610901Y-786700D01*
X2612902Y-782600D01*
X2612902Y-774400D01*
X2610901Y-770399D01*
X2606801Y-766300D01*
X2602701Y-764200D01*
X2570002Y-730300D02*
G01*
X2598602Y-750700D01*
X2598602Y-720000D01*
X2570002Y-730300D02*
G01*
X2612902Y-730300D01*
X770199Y-752100D02*
G01*
X766100Y-754200D01*
X761999Y-758299D01*
X760000Y-762300D01*
X760000Y-770500D01*
X761999Y-774600D01*
X766100Y-778699D01*
X770199Y-780799D01*
X776300Y-782800D01*
X786500Y-782800D01*
X792699Y-780799D01*
X796799Y-778699D01*
X800900Y-774600D01*
X802899Y-770500D01*
X802899Y-762300D01*
X800900Y-758299D01*
X796799Y-754200D01*
X792699Y-752100D01*
X760000Y-714099D02*
G01*
X760000Y-734499D01*
X778400Y-736599D01*
X776300Y-734499D01*
X774299Y-728400D01*
X774299Y-722300D01*
X776300Y-716100D01*
X780399Y-711999D01*
X786500Y-710000D01*
X790599Y-710000D01*
X796799Y-711999D01*
X800900Y-716100D01*
X802899Y-722300D01*
X802899Y-728400D01*
X800900Y-734499D01*
X798800Y-736599D01*
X794699Y-738600D01*
X1635699Y-1709299D02*
G01*
X1631599Y-1711399D01*
X1627500Y-1715500D01*
X1625500Y-1719499D01*
X1625500Y-1727699D01*
X1627500Y-1731799D01*
X1631599Y-1735900D01*
X1635699Y-1738000D01*
X1641800Y-1740000D01*
X1651999Y-1740000D01*
X1658199Y-1738000D01*
X1662299Y-1735900D01*
X1666400Y-1731799D01*
X1668400Y-1727699D01*
X1668400Y-1719499D01*
X1666400Y-1715500D01*
X1662299Y-1711399D01*
X1658199Y-1709299D01*
X1631599Y-1671300D02*
G01*
X1627500Y-1673299D01*
X1625500Y-1679499D01*
X1625500Y-1683499D01*
X1627500Y-1689699D01*
X1633599Y-1693800D01*
X1643900Y-1695799D01*
X1654099Y-1695799D01*
X1662299Y-1693800D01*
X1666400Y-1689699D01*
X1668400Y-1683499D01*
X1668400Y-1681500D01*
X1666400Y-1675399D01*
X1662299Y-1671300D01*
X1656099Y-1669200D01*
X1654099Y-1669200D01*
X1648000Y-1671300D01*
X1643900Y-1675399D01*
X1641800Y-1681500D01*
X1641800Y-1683499D01*
X1643900Y-1689699D01*
X1648000Y-1693800D01*
X1654099Y-1695799D01*
X2960201Y-2752100D02*
G01*
X2956102Y-2754200D01*
X2952002Y-2758299D01*
X2950002Y-2762300D01*
X2950002Y-2770500D01*
X2952002Y-2774600D01*
X2956102Y-2778699D01*
X2960201Y-2780799D01*
X2966301Y-2782800D01*
X2976502Y-2782800D01*
X2982701Y-2780799D01*
X2986801Y-2778699D01*
X2990901Y-2774600D01*
X2992902Y-2770500D01*
X2992902Y-2762300D01*
X2990901Y-2758299D01*
X2986801Y-2754200D01*
X2982701Y-2752100D01*
X2950002Y-2710000D02*
G01*
X2992902Y-2730399D01*
X2950002Y-2738600D02*
G01*
X2950002Y-2710000D01*
X1340201Y-2612100D02*
G01*
X1336102Y-2614200D01*
X1332002Y-2618299D01*
X1330002Y-2622300D01*
X1330002Y-2630500D01*
X1332002Y-2634600D01*
X1336102Y-2638699D01*
X1340201Y-2640799D01*
X1346301Y-2642800D01*
X1356502Y-2642800D01*
X1362701Y-2640799D01*
X1366801Y-2638699D01*
X1370901Y-2634600D01*
X1372902Y-2630500D01*
X1372902Y-2622300D01*
X1370901Y-2618299D01*
X1366801Y-2614200D01*
X1362701Y-2612100D01*
X1330002Y-2588400D02*
G01*
X1332002Y-2594499D01*
X1336102Y-2596599D01*
X1340201Y-2596599D01*
X1344301Y-2594499D01*
X1346301Y-2590399D01*
X1348401Y-2582300D01*
X1350402Y-2576100D01*
X1354502Y-2571999D01*
X1358602Y-2570000D01*
X1364701Y-2570000D01*
X1368801Y-2571999D01*
X1370901Y-2574099D01*
X1372902Y-2580200D01*
X1372902Y-2588400D01*
X1370901Y-2594499D01*
X1368801Y-2596599D01*
X1364701Y-2598600D01*
X1358602Y-2598600D01*
X1354502Y-2596599D01*
X1350402Y-2592500D01*
X1348401Y-2586300D01*
X1346301Y-2578200D01*
X1344301Y-2574099D01*
X1340201Y-2571999D01*
X1336102Y-2571999D01*
X1332002Y-2574099D01*
X1330002Y-2580200D01*
X1330002Y-2588400D01*
X675500Y-1130000D02*
G01*
X718400Y-1130000D01*
X718400Y-1130000D02*
G01*
X718400Y-1105500D01*
X675500Y-1091999D02*
G01*
X718400Y-1091999D01*
X675500Y-1091999D02*
G01*
X675500Y-1065399D01*
X695900Y-1091999D02*
G01*
X695900Y-1075599D01*
X718400Y-1091999D02*
G01*
X718400Y-1065399D01*
X675500Y-1051900D02*
G01*
X718400Y-1051900D01*
X675500Y-1051900D02*
G01*
X675500Y-1037500D01*
X677500Y-1031399D01*
X681599Y-1027300D01*
X685700Y-1025300D01*
X691799Y-1023200D01*
X701999Y-1023200D01*
X708200Y-1025300D01*
X712300Y-1027300D01*
X716399Y-1031399D01*
X718400Y-1037500D01*
X718400Y-1051900D01*
X683600Y-1009699D02*
G01*
X681599Y-1005599D01*
X675500Y-999499D01*
X718400Y-999499D01*
X1035500Y-2610000D02*
G01*
X1078400Y-2610000D01*
X1035500Y-2610000D02*
G01*
X1035500Y-2591599D01*
X1037500Y-2585500D01*
X1039499Y-2583400D01*
X1043599Y-2581399D01*
X1047700Y-2581399D01*
X1051800Y-2583400D01*
X1053900Y-2585500D01*
X1055900Y-2591599D01*
X1055900Y-2610000D01*
X1055900Y-2595700D02*
G01*
X1078400Y-2581399D01*
X1043599Y-2567899D02*
G01*
X1041599Y-2563800D01*
X1035500Y-2557600D01*
X1078400Y-2557600D01*
X4405501Y-2430001D02*
G01*
X4448401Y-2430001D01*
X4405501Y-2401401D02*
G01*
X4448401Y-2401401D01*
X4425901Y-2430001D02*
G01*
X4425901Y-2401401D01*
X4415702Y-2385801D02*
G01*
X4413602Y-2385801D01*
X4409502Y-2383800D01*
X4407502Y-2381700D01*
X4405501Y-2377600D01*
X4405501Y-2369501D01*
X4407502Y-2365401D01*
X4409502Y-2363301D01*
X4413602Y-2361300D01*
X4417701Y-2361300D01*
X4421801Y-2363301D01*
X4428001Y-2367401D01*
X4448401Y-2387901D01*
X4448401Y-2359200D01*
X1035500Y-2340000D02*
G01*
X1078400Y-2340000D01*
X1035500Y-2340000D02*
G01*
X1035500Y-2325700D01*
X1037500Y-2319499D01*
X1041599Y-2315500D01*
X1045699Y-2313400D01*
X1051800Y-2311399D01*
X1061999Y-2311399D01*
X1068199Y-2313400D01*
X1072299Y-2315500D01*
X1076400Y-2319499D01*
X1078400Y-2325700D01*
X1078400Y-2340000D01*
X1043599Y-2297899D02*
G01*
X1041599Y-2293800D01*
X1035500Y-2287600D01*
X1078400Y-2287600D01*
X1185699Y-2159299D02*
G01*
X1181599Y-2161399D01*
X1177500Y-2165500D01*
X1175500Y-2169499D01*
X1175500Y-2177700D01*
X1177500Y-2181799D01*
X1181599Y-2185900D01*
X1185699Y-2188000D01*
X1191800Y-2190000D01*
X1201999Y-2190000D01*
X1208199Y-2188000D01*
X1212299Y-2185900D01*
X1216400Y-2181799D01*
X1218400Y-2177700D01*
X1218400Y-2169499D01*
X1216400Y-2165500D01*
X1212299Y-2161399D01*
X1208199Y-2159299D01*
X1183599Y-2145799D02*
G01*
X1181599Y-2141700D01*
X1175500Y-2135599D01*
X1218400Y-2135599D01*
X3965500Y-2780000D02*
G01*
X3996099Y-2780000D01*
X4002299Y-2778000D01*
X4006400Y-2773899D01*
X4008400Y-2767700D01*
X4008400Y-2763600D01*
X4006400Y-2757500D01*
X4002299Y-2753400D01*
X3996099Y-2751399D01*
X3965500Y-2751399D01*
X3965500Y-2713299D02*
G01*
X3965500Y-2733800D01*
X3983900Y-2735799D01*
X3981800Y-2733800D01*
X3979799Y-2727600D01*
X3979799Y-2721500D01*
X3981800Y-2715399D01*
X3985900Y-2711300D01*
X3991999Y-2709200D01*
X3996099Y-2709200D01*
X4002299Y-2711300D01*
X4006400Y-2715399D01*
X4008400Y-2721500D01*
X4008400Y-2727600D01*
X4006400Y-2733800D01*
X4004300Y-2735799D01*
X4000200Y-2737899D01*
X675500Y-1840000D02*
G01*
X718400Y-1840000D01*
X675500Y-1811399D02*
G01*
X718400Y-1811399D01*
X695900Y-1840000D02*
G01*
X695900Y-1811399D01*
X683600Y-1797899D02*
G01*
X681599Y-1793800D01*
X675500Y-1787600D01*
X718400Y-1787600D01*
X3025500Y-2490000D02*
G01*
X3068400Y-2490000D01*
X3025500Y-2490000D02*
G01*
X3025500Y-2471599D01*
X3027500Y-2465500D01*
X3029499Y-2463400D01*
X3033599Y-2461399D01*
X3037700Y-2461399D01*
X3041800Y-2463400D01*
X3043900Y-2465500D01*
X3045900Y-2471599D01*
X3045900Y-2490000D01*
X3045900Y-2475700D02*
G01*
X3068400Y-2461399D01*
X3025500Y-2447899D02*
G01*
X3068400Y-2447899D01*
X3025500Y-2447899D02*
G01*
X3068400Y-2419200D01*
X3025500Y-2419200D02*
G01*
X3068400Y-2419200D01*
X3033599Y-2405700D02*
G01*
X3031599Y-2401599D01*
X3025500Y-2395500D01*
X3068400Y-2395500D01*
G36*
X1072440Y-2110940D02*
G01*
X1072440Y-2229060D01*
X1076800Y-2228580D01*
X1078980Y-2228240D01*
X1083260Y-2227280D01*
X1085380Y-2226700D01*
X1089520Y-2225280D01*
X1093560Y-2223560D01*
X1097460Y-2221540D01*
X1099360Y-2220440D01*
X1103000Y-2218000D01*
X1106460Y-2215300D01*
X1109720Y-2212340D01*
X1112740Y-2209160D01*
X1115520Y-2205780D01*
X1118040Y-2202180D01*
X1120300Y-2198400D01*
X1122260Y-2194480D01*
X1123920Y-2190420D01*
X1125280Y-2186240D01*
X1126340Y-2181980D01*
X1127060Y-2177660D01*
X1127460Y-2173280D01*
X1127540Y-2168900D01*
X1127300Y-2164520D01*
X1126740Y-2160160D01*
X1126340Y-2158000D01*
X1125280Y-2153740D01*
X1123920Y-2149580D01*
X1122260Y-2145520D01*
X1120300Y-2141580D01*
X1118040Y-2137820D01*
X1115520Y-2134220D01*
X1112740Y-2130820D01*
X1109720Y-2127640D01*
X1106460Y-2124700D01*
X1103000Y-2122000D01*
X1099360Y-2119560D01*
X1095540Y-2117400D01*
X1091560Y-2115540D01*
X1087460Y-2113960D01*
X1083260Y-2112700D01*
X1078980Y-2111760D01*
X1074620Y-2111140D01*
G37*
D11*
X1910000Y-1950000D02*
G01*
X3910000Y-1950000D01*
X3910000Y-1450000D01*
X1910000Y-1450000D01*
X1910000Y-1950000D01*
X1620000Y-2860000D02*
G01*
X2820000Y-2860000D01*
X2820000Y-2360000D01*
X1620000Y-2360000D01*
X1620000Y-2860000D01*
X2850000Y-1010000D02*
G01*
X4250000Y-1010000D01*
X4250000Y-510000D01*
X2850000Y-510000D01*
X2850000Y-1010000D01*
X1050000Y-1000000D02*
G01*
X2450000Y-1000000D01*
X2450000Y-500000D01*
X1050000Y-500000D01*
X1050000Y-1000000D01*
D12*
X1558500Y-1827500D02*
G01*
X1558500Y-1579499D01*
X1381499Y-1827500D02*
G01*
X1381499Y-1579499D01*
D13*
X1001099Y-1846900D02*
G01*
X1201099Y-1846900D01*
X1201099Y-1746900D01*
X1001099Y-1746900D01*
X1001099Y-1846900D01*
X1011099Y-1656900D02*
G01*
X1211099Y-1656900D01*
X1211099Y-1556900D01*
X1011099Y-1556900D01*
X1011099Y-1656900D01*
D12*
X4520000Y-2855000D02*
G01*
X4520000Y-2685000D01*
X4280000Y-2685000D02*
G01*
X4280000Y-2855000D01*
X4438999Y-2890000D02*
G01*
X4360000Y-2890000D01*
X4440000Y-2650000D02*
G01*
X4360000Y-2650000D01*
D14*
X650000Y-2475000D02*
G01*
X650000Y-2550000D01*
X750000Y-2550000D01*
X750000Y-1950000D01*
X650000Y-1950000D01*
D15*
X650000Y-1950000D02*
G01*
X650000Y-2475000D01*
D13*
X2746899Y-858899D02*
G01*
X2746899Y-658899D01*
X2646899Y-658899D01*
X2646899Y-858899D01*
X2746899Y-858899D01*
X946900Y-848899D02*
G01*
X946900Y-648899D01*
X846900Y-648899D01*
X846900Y-848899D01*
X946900Y-848899D01*
X1796899Y-1798899D02*
G01*
X1796899Y-1598899D01*
X1696899Y-1598899D01*
X1696899Y-1798899D01*
X1796899Y-1798899D01*
X3116899Y-2848899D02*
G01*
X3116899Y-2648899D01*
X3016899Y-2648899D01*
X3016899Y-2848899D01*
X3116899Y-2848899D01*
X1506899Y-2708899D02*
G01*
X1506899Y-2508899D01*
X1406899Y-2508899D01*
X1406899Y-2708899D01*
X1506899Y-2708899D01*
D12*
X650000Y-1320000D02*
G01*
X750300Y-1320199D01*
X960000Y-2650000D02*
G01*
X1160000Y-2650000D01*
X1160000Y-2650000D02*
G01*
X1160000Y-2680000D01*
X1160000Y-2680000D02*
G01*
X1160000Y-2710000D01*
X1160000Y-2710000D02*
G01*
X960000Y-2710000D01*
X960000Y-2710000D02*
G01*
X960000Y-2680000D01*
X960000Y-2680000D02*
G01*
X960000Y-2650000D01*
X1160000Y-2680000D02*
G01*
X1170000Y-2680000D01*
X960000Y-2680000D02*
G01*
X950000Y-2680000D01*
D14*
X4590000Y-2460000D02*
G01*
X4790000Y-2460000D01*
X4790000Y-860000D01*
X4590000Y-860000D01*
X4590000Y-2460000D01*
D11*
X970000Y-2375000D02*
G01*
X1170000Y-2375000D01*
X1170000Y-2465000D01*
X970000Y-2465000D01*
X970000Y-2375000D01*
X1145000Y-2375000D02*
G01*
X1145000Y-2465000D01*
D12*
X981899Y-2184600D02*
G01*
X981899Y-2153600D01*
X999099Y-2169600D02*
G01*
X966099Y-2169600D01*
D11*
X3220000Y-2840000D02*
G01*
X3920000Y-2840000D01*
X3920000Y-2640000D01*
X3220000Y-2640000D01*
X3220000Y-2840000D01*
D14*
X650000Y-1550000D02*
G01*
X750000Y-1550000D01*
X750000Y-1750000D01*
X650000Y-1750000D01*
X650000Y-1675000D01*
D15*
X650000Y-1550000D02*
G01*
X650000Y-1675000D01*
D12*
X3120000Y-2390000D02*
G01*
X4020000Y-2390000D01*
X4020000Y-2390000D02*
G01*
X4020000Y-2490000D01*
X4020000Y-2490000D02*
G01*
X3120000Y-2490000D01*
X3120000Y-2490000D02*
G01*
X3120000Y-2390000D01*
G75*
G01*
X1381500Y-1827543D02*
G03*
X1558500Y-1827543I88500J0D01*
G75*
G01*
X1558500Y-1579543D02*
G03*
X1381500Y-1579543I-88500J0D01*
G75*
G01*
X749820Y-1320000D02*
G03*
X650020Y-1320000I-49900J60910D01*
G75*
G01
X1970000Y-1930000D02*
G03X1970000Y-1930000I-10000J0D01*
G75*
G01
X1670000Y-2830000D02*
G03X1670000Y-2830000I-10000J0D01*
G75*
G01
X2910000Y-980000D02*
G03X2910000Y-980000I-10000J0D01*
G75*
G01
X1110000Y-970000D02*
G03X1110000Y-970000I-10000J0D01*
G75*
G01
X4470000Y-2770000D02*
G03X4470000Y-2770000I-70000J0D01*
G75*
G01
X1129530Y-2170000D02*
G03X1129530Y-2170000I-59060J0D01*
G75*
G01
X3280000Y-2800000D02*
G03X3280000Y-2800000I-10000J0D01*
M02*
